<svg xmlns="http://www.w3.org/2000/svg" xmlns:xlink="http://www.w3.org/1999/xlink" width="100" zoomAndPan="magnify" viewBox="0 0 75 30.000001" height="40" preserveAspectRatio="xMidYMid meet" version="1.0"><defs><g/><clipPath id="id1"><path d="M 1.210938 0 L 73.789062 0 L 73.789062 29.03125 L 1.210938 29.03125 Z M 1.210938 0 " clip-rule="nonzero"/></clipPath><clipPath id="id2"><path d="M 4.113281 6.199219 L 19.355469 6.199219 L 19.355469 19 L 4.113281 19 Z M 4.113281 6.199219 " clip-rule="nonzero"/></clipPath><clipPath id="id3"><path d="M 4.113281 17.777344 L 19.355469 17.777344 L 19.355469 21.832031 L 4.113281 21.832031 Z M 4.113281 17.777344 " clip-rule="nonzero"/></clipPath><clipPath id="id4"><path d="M 8.257812 19.773438 L 15.210938 19.773438 L 15.210938 22.890625 L 8.257812 22.890625 Z M 8.257812 19.773438 " clip-rule="nonzero"/></clipPath></defs><g clip-path="url(#id1)"><path fill="rgb(100%, 100%, 100%)" d="M 1.210938 0 L 73.789062 0 L 73.789062 65.324219 L 1.210938 65.324219 Z M 1.210938 0 " fill-opacity="1" fill-rule="nonzero"/><path fill="rgb(12.939453%, 23.529053%, 33.729553%)" d="M 1.210938 0 L 73.789062 0 L 73.789062 29.03125 L 1.210938 29.03125 Z M 1.210938 0 " fill-opacity="1" fill-rule="nonzero"/><path fill="rgb(100%, 100%, 100%)" d="M 1.210938 0 L 73.789062 0 L 73.789062 29.03125 L 1.210938 29.03125 Z M 1.210938 0 " fill-opacity="1" fill-rule="nonzero"/><path fill="rgb(12.939453%, 23.529053%, 33.729553%)" d="M 1.210938 0 L 73.789062 0 L 73.789062 29.03125 L 1.210938 29.03125 Z M 1.210938 0 " fill-opacity="1" fill-rule="nonzero"/></g><path fill="rgb(100%, 100%, 100%)" d="M 11.101562 10.914062 C 11.050781 10.839844 11.007812 10.761719 10.976562 10.671875 C 10.949219 10.589844 10.933594 10.5 10.933594 10.40625 C 10.933594 10.28125 10.960938 10.164062 11.007812 10.054688 C 11.058594 9.945312 11.128906 9.851562 11.21875 9.773438 L 11.234375 9.761719 L 11.242188 9.777344 C 11.242188 9.78125 11.242188 9.78125 11.242188 9.785156 C 11.242188 9.785156 11.246094 9.789062 11.246094 9.789062 C 11.257812 9.820312 11.265625 9.875 11.269531 9.910156 L 11.269531 9.914062 C 11.277344 10 11.28125 10.09375 11.277344 10.191406 C 11.273438 10.289062 11.265625 10.386719 11.25 10.484375 C 11.242188 10.535156 11.230469 10.585938 11.21875 10.632812 C 11.210938 10.683594 11.195312 10.726562 11.183594 10.765625 C 11.179688 10.769531 11.171875 10.789062 11.164062 10.816406 C 11.152344 10.84375 11.136719 10.878906 11.132812 10.898438 C 11.128906 10.898438 11.128906 10.902344 11.128906 10.902344 C 11.128906 10.90625 11.125 10.910156 11.125 10.910156 L 11.117188 10.929688 Z M 12.234375 9.761719 C 12.328125 9.839844 12.402344 9.9375 12.457031 10.050781 C 12.507812 10.15625 12.535156 10.277344 12.535156 10.40625 C 12.535156 10.496094 12.519531 10.582031 12.496094 10.660156 C 12.46875 10.746094 12.429688 10.824219 12.378906 10.894531 L 12.363281 10.914062 L 12.355469 10.890625 L 12.355469 10.886719 C 12.347656 10.871094 12.332031 10.835938 12.320312 10.804688 C 12.3125 10.78125 12.300781 10.761719 12.300781 10.757812 C 12.285156 10.71875 12.273438 10.671875 12.257812 10.625 C 12.246094 10.578125 12.234375 10.527344 12.226562 10.476562 C 12.207031 10.382812 12.199219 10.28125 12.191406 10.183594 C 12.1875 10.089844 12.1875 9.992188 12.195312 9.910156 L 12.195312 9.902344 C 12.195312 9.878906 12.199219 9.84375 12.203125 9.8125 C 12.207031 9.792969 12.210938 9.777344 12.214844 9.769531 L 12.222656 9.75 Z M 11.734375 9.578125 C 11.800781 9.578125 11.863281 9.585938 11.925781 9.601562 C 11.988281 9.621094 12.046875 9.644531 12.105469 9.671875 L 12.113281 9.679688 L 12.109375 9.6875 L 12.109375 9.699219 C 12.09375 9.757812 12.085938 9.839844 12.082031 9.917969 C 12.074219 10 12.074219 10.082031 12.074219 10.144531 C 12.074219 10.175781 12.078125 10.21875 12.082031 10.265625 C 12.085938 10.3125 12.09375 10.367188 12.097656 10.421875 C 12.105469 10.476562 12.117188 10.53125 12.128906 10.589844 C 12.140625 10.648438 12.15625 10.703125 12.171875 10.757812 C 12.175781 10.773438 12.183594 10.796875 12.191406 10.824219 C 12.199219 10.847656 12.210938 10.878906 12.222656 10.90625 C 12.230469 10.925781 12.238281 10.945312 12.246094 10.960938 C 12.253906 10.976562 12.257812 10.988281 12.265625 10.992188 C 12.269531 10.996094 12.269531 10.996094 12.269531 10.996094 L 12.28125 11.003906 L 12.269531 11.015625 C 12.199219 11.085938 12.113281 11.136719 12.023438 11.175781 C 11.933594 11.210938 11.835938 11.230469 11.734375 11.230469 C 11.636719 11.230469 11.542969 11.210938 11.457031 11.179688 C 11.367188 11.144531 11.285156 11.09375 11.214844 11.03125 L 11.203125 11.019531 L 11.214844 11.011719 L 11.214844 11.007812 C 11.222656 11 11.230469 10.988281 11.242188 10.972656 C 11.25 10.953125 11.257812 10.933594 11.265625 10.914062 C 11.273438 10.886719 11.285156 10.855469 11.292969 10.828125 C 11.300781 10.804688 11.308594 10.78125 11.3125 10.765625 C 11.324219 10.710938 11.339844 10.652344 11.347656 10.59375 C 11.359375 10.539062 11.367188 10.480469 11.375 10.425781 C 11.382812 10.371094 11.386719 10.316406 11.390625 10.269531 C 11.390625 10.222656 11.394531 10.179688 11.390625 10.148438 C 11.390625 10.085938 11.390625 10.003906 11.382812 9.921875 C 11.375 9.84375 11.367188 9.765625 11.347656 9.703125 L 11.347656 9.699219 C 11.347656 9.699219 11.347656 9.695312 11.347656 9.695312 L 11.34375 9.683594 L 11.351562 9.679688 C 11.410156 9.648438 11.472656 9.621094 11.539062 9.605469 C 11.601562 9.589844 11.667969 9.578125 11.734375 9.578125 " fill-opacity="1" fill-rule="evenodd"/><path fill="rgb(100%, 100%, 100%)" d="M 8.089844 10.414062 L 7.988281 10.5 L 7.863281 10.347656 C 7.898438 10.324219 7.9375 10.300781 7.976562 10.277344 Z M 8.207031 10.3125 L 8.109375 10.398438 L 8 10.265625 C 8.042969 10.246094 8.082031 10.230469 8.128906 10.214844 Z M 8.324219 10.207031 L 8.226562 10.292969 L 8.15625 10.207031 C 8.203125 10.195312 8.25 10.183594 8.300781 10.175781 Z M 8.371094 10.167969 L 8.34375 10.1875 L 8.332031 10.171875 C 8.34375 10.171875 8.355469 10.167969 8.371094 10.167969 Z M 8.246094 10.605469 L 8.148438 10.691406 L 8.007812 10.519531 L 8.105469 10.433594 Z M 8.363281 10.5 L 8.265625 10.585938 L 8.125 10.417969 L 8.222656 10.332031 Z M 8.484375 10.398438 L 8.382812 10.484375 L 8.242188 10.3125 L 8.339844 10.226562 Z M 8.605469 10.289062 L 8.503906 10.378906 L 8.359375 10.207031 L 8.410156 10.164062 C 8.441406 10.164062 8.46875 10.164062 8.5 10.164062 Z M 8.722656 10.183594 L 8.625 10.273438 L 8.535156 10.164062 C 8.597656 10.167969 8.660156 10.171875 8.722656 10.183594 Z M 8.421875 10.816406 L 8.324219 10.902344 L 8.164062 10.710938 L 8.261719 10.625 Z M 8.539062 10.710938 L 8.441406 10.796875 L 8.285156 10.609375 L 8.382812 10.523438 Z M 8.65625 10.605469 L 8.558594 10.695312 L 8.402344 10.503906 L 8.5 10.417969 Z M 8.78125 10.5 L 8.679688 10.589844 L 8.519531 10.398438 L 8.621094 10.308594 Z M 8.90625 10.390625 L 8.800781 10.484375 L 8.640625 10.292969 L 8.746094 10.199219 Z M 9.015625 10.292969 L 8.925781 10.371094 L 8.777344 10.195312 C 8.847656 10.210938 8.917969 10.230469 8.988281 10.253906 Z M 9.039062 10.273438 L 9.035156 10.273438 Z M 8.585938 11.015625 L 8.488281 11.097656 L 8.339844 10.921875 L 8.4375 10.835938 Z M 8.703125 10.910156 L 8.605469 10.996094 L 8.457031 10.816406 L 8.554688 10.730469 Z M 8.824219 10.808594 L 8.722656 10.894531 L 8.574219 10.714844 L 8.675781 10.628906 Z M 8.945312 10.703125 L 8.84375 10.789062 L 8.695312 10.609375 L 8.796875 10.519531 Z M 9.070312 10.589844 L 8.964844 10.683594 L 8.816406 10.503906 L 8.921875 10.410156 Z M 9.183594 10.496094 L 9.09375 10.574219 L 8.941406 10.394531 L 9.035156 10.3125 Z M 9.296875 10.398438 L 9.203125 10.476562 L 9.054688 10.296875 L 9.066406 10.285156 C 9.144531 10.316406 9.21875 10.355469 9.296875 10.398438 Z M 8.75 11.214844 L 8.65625 11.296875 L 8.503906 11.117188 L 8.601562 11.035156 Z M 8.871094 11.113281 L 8.769531 11.195312 L 8.621094 11.015625 L 8.722656 10.933594 Z M 8.992188 11.007812 L 8.890625 11.09375 L 8.742188 10.914062 L 8.839844 10.828125 Z M 9.113281 10.902344 L 9.011719 10.992188 L 8.863281 10.808594 L 8.964844 10.722656 Z M 9.238281 10.792969 L 9.132812 10.886719 L 8.984375 10.703125 L 9.089844 10.613281 Z M 9.351562 10.695312 L 9.261719 10.777344 L 9.109375 10.59375 L 9.203125 10.515625 Z M 9.472656 10.59375 L 9.371094 10.679688 L 9.222656 10.496094 L 9.320312 10.414062 C 9.324219 10.414062 9.324219 10.417969 9.328125 10.417969 Z M 9.523438 10.550781 L 9.492188 10.578125 L 9.394531 10.460938 C 9.4375 10.488281 9.480469 10.519531 9.523438 10.550781 Z M 8.910156 11.40625 L 8.8125 11.488281 L 8.671875 11.316406 L 8.769531 11.234375 Z M 9.027344 11.300781 L 8.929688 11.386719 L 8.789062 11.21875 L 8.886719 11.132812 Z M 9.148438 11.199219 L 9.046875 11.285156 L 8.90625 11.113281 L 9.007812 11.027344 Z M 9.269531 11.089844 L 9.167969 11.179688 L 9.027344 11.011719 L 9.128906 10.921875 Z M 9.394531 10.980469 L 9.289062 11.074219 L 9.148438 10.90625 L 9.257812 10.8125 Z M 9.507812 10.886719 L 9.414062 10.964844 L 9.277344 10.796875 L 9.371094 10.71875 Z M 9.628906 10.78125 L 9.527344 10.867188 L 9.390625 10.699219 L 9.492188 10.613281 Z M 9.710938 10.710938 L 9.648438 10.765625 L 9.507812 10.597656 L 9.542969 10.566406 C 9.601562 10.609375 9.65625 10.660156 9.710938 10.710938 Z M 9.40625 12.007812 L 9.3125 12.085938 L 9.167969 11.910156 L 9.261719 11.832031 Z M 9.527344 11.902344 L 9.425781 11.988281 L 9.28125 11.8125 L 9.378906 11.726562 Z M 9.648438 11.800781 L 9.546875 11.886719 L 9.402344 11.710938 L 9.5 11.625 Z M 9.769531 11.695312 L 9.667969 11.78125 L 9.523438 11.605469 L 9.625 11.519531 Z M 9.898438 11.585938 L 9.789062 11.679688 L 9.644531 11.5 L 9.75 11.410156 Z M 10.007812 11.492188 L 9.917969 11.570312 L 9.769531 11.390625 L 9.859375 11.3125 Z M 10.128906 11.386719 L 10.027344 11.476562 L 9.878906 11.296875 L 9.984375 11.207031 Z M 10.183594 11.339844 L 10.148438 11.371094 L 10 11.191406 L 10.066406 11.136719 C 10.109375 11.203125 10.148438 11.273438 10.183594 11.339844 Z M 10.167969 11.390625 L 10.199219 11.367188 C 10.222656 11.414062 10.242188 11.460938 10.261719 11.507812 Z M 9.574219 12.207031 L 9.480469 12.285156 L 9.332031 12.109375 L 9.425781 12.027344 Z M 9.691406 12.101562 L 9.59375 12.1875 L 9.445312 12.011719 L 9.546875 11.925781 Z M 9.8125 12 L 9.710938 12.085938 L 9.566406 11.90625 L 9.664062 11.820312 Z M 9.933594 11.890625 L 9.832031 11.980469 L 9.6875 11.804688 L 9.789062 11.714844 Z M 10.058594 11.785156 L 9.953125 11.875 L 9.808594 11.699219 L 9.914062 11.609375 Z M 10.167969 11.6875 L 10.078125 11.765625 L 9.933594 11.589844 L 10.027344 11.511719 Z M 10.292969 11.582031 L 10.1875 11.671875 L 10.046875 11.496094 L 10.148438 11.40625 L 10.289062 11.582031 Z M 9.734375 12.402344 L 9.644531 12.484375 L 9.496094 12.308594 L 9.589844 12.226562 Z M 9.855469 12.296875 L 9.753906 12.386719 L 9.609375 12.210938 L 9.710938 12.125 Z M 9.972656 12.191406 L 9.875 12.28125 L 9.730469 12.105469 L 9.828125 12.019531 Z M 10.09375 12.085938 L 9.992188 12.175781 L 9.851562 12.003906 L 9.953125 11.914062 Z M 10.21875 11.976562 L 10.117188 12.070312 L 9.972656 11.894531 L 10.078125 11.804688 Z M 10.328125 11.882812 L 10.238281 11.960938 L 10.097656 11.789062 L 10.1875 11.710938 Z M 10.367188 11.847656 L 10.347656 11.863281 L 10.207031 11.691406 L 10.300781 11.609375 C 10.328125 11.6875 10.351562 11.769531 10.367188 11.847656 Z M 10.367188 11.882812 L 10.375 11.875 C 10.378906 11.886719 10.378906 11.894531 10.378906 11.902344 Z M 9.898438 12.597656 L 9.804688 12.679688 L 9.660156 12.503906 L 9.75 12.421875 Z M 10.015625 12.496094 L 9.917969 12.582031 L 9.773438 12.40625 L 9.871094 12.320312 Z M 10.136719 12.390625 L 10.035156 12.476562 L 9.890625 12.300781 L 9.992188 12.214844 Z M 10.257812 12.28125 L 10.15625 12.371094 L 10.011719 12.195312 L 10.113281 12.105469 Z M 10.382812 12.171875 L 10.277344 12.265625 L 10.132812 12.089844 L 10.238281 11.996094 Z M 10.410156 12.148438 L 10.402344 12.15625 L 10.257812 11.980469 L 10.347656 11.902344 L 10.390625 11.953125 C 10.398438 12.019531 10.40625 12.085938 10.410156 12.148438 Z M 10.292969 12.285156 L 10.398438 12.195312 L 10.410156 12.207031 C 10.410156 12.277344 10.40625 12.34375 10.398438 12.410156 Z M 10.039062 12.769531 L 9.949219 12.851562 L 9.824219 12.699219 L 9.914062 12.621094 Z M 10.15625 12.664062 L 10.058594 12.75 L 9.933594 12.601562 L 10.035156 12.515625 Z M 10.277344 12.558594 L 10.175781 12.644531 L 10.054688 12.496094 L 10.152344 12.410156 Z M 10.390625 12.453125 L 10.296875 12.539062 L 10.171875 12.390625 L 10.273438 12.304688 L 10.394531 12.445312 Z M 10.3125 12.5625 L 10.382812 12.496094 C 10.375 12.535156 10.367188 12.574219 10.355469 12.613281 Z M 10.195312 12.667969 L 10.292969 12.578125 L 10.347656 12.640625 C 10.332031 12.691406 10.3125 12.738281 10.289062 12.78125 Z M 10.074219 12.773438 L 10.175781 12.683594 L 10.277344 12.808594 C 10.253906 12.851562 10.230469 12.890625 10.203125 12.929688 Z M 9.964844 12.871094 L 10.054688 12.789062 L 10.1875 12.949219 C 10.164062 12.984375 10.136719 13.011719 10.109375 13.042969 Z M 9.070312 11.601562 L 8.976562 11.683594 L 8.832031 11.507812 L 8.925781 11.425781 Z M 9.191406 11.496094 L 9.089844 11.582031 L 8.945312 11.40625 L 9.042969 11.320312 Z M 9.308594 11.394531 L 9.210938 11.480469 L 9.066406 11.304688 L 9.164062 11.21875 Z M 9.433594 11.289062 L 9.332031 11.375 L 9.183594 11.199219 L 9.285156 11.113281 Z M 9.558594 11.179688 L 9.453125 11.269531 L 9.308594 11.09375 L 9.414062 11.003906 Z M 9.667969 11.082031 L 9.578125 11.160156 L 9.433594 10.984375 L 9.523438 10.90625 Z M 9.792969 10.976562 L 9.6875 11.066406 L 9.542969 10.890625 L 9.644531 10.800781 Z M 9.886719 10.894531 L 9.808594 10.960938 L 9.664062 10.785156 L 9.730469 10.726562 C 9.777344 10.773438 9.824219 10.824219 9.871094 10.875 C 9.875 10.882812 9.878906 10.886719 9.886719 10.894531 Z M 9.824219 10.980469 L 9.902344 10.914062 C 9.957031 10.980469 10.003906 11.046875 10.050781 11.113281 L 9.984375 11.171875 Z M 9.707031 11.085938 L 9.808594 10.996094 L 9.964844 11.1875 L 9.863281 11.277344 Z M 9.59375 11.179688 L 9.6875 11.101562 L 9.84375 11.292969 L 9.753906 11.371094 Z M 9.46875 11.289062 L 9.574219 11.199219 L 9.734375 11.390625 L 9.625 11.480469 Z M 9.347656 11.398438 L 9.449219 11.308594 L 9.605469 11.496094 L 9.503906 11.585938 Z M 9.226562 11.5 L 9.328125 11.414062 L 9.484375 11.601562 L 9.382812 11.691406 Z M 9.109375 11.605469 L 9.207031 11.519531 L 9.363281 11.707031 L 9.265625 11.792969 Z M 8.992188 11.703125 L 9.089844 11.621094 L 9.242188 11.808594 L 9.148438 11.890625 Z M 7.75 10.714844 L 7.847656 10.628906 L 7.71875 10.476562 C 7.691406 10.507812 7.664062 10.542969 7.636719 10.582031 Z M 7.632812 10.820312 L 7.730469 10.734375 L 7.621094 10.605469 C 7.597656 10.644531 7.574219 10.683594 7.554688 10.726562 Z M 7.515625 10.925781 L 7.613281 10.835938 L 7.542969 10.753906 C 7.523438 10.796875 7.503906 10.847656 7.492188 10.894531 Z M 7.472656 10.964844 L 7.496094 10.945312 L 7.480469 10.925781 C 7.480469 10.941406 7.476562 10.953125 7.472656 10.964844 Z M 7.910156 10.902344 L 8.007812 10.816406 L 7.863281 10.648438 L 7.765625 10.734375 Z M 7.792969 11.007812 L 7.890625 10.921875 L 7.746094 10.753906 L 7.652344 10.839844 Z M 7.675781 11.113281 L 7.773438 11.027344 L 7.628906 10.855469 L 7.53125 10.945312 Z M 7.554688 11.222656 L 7.65625 11.132812 L 7.511719 10.964844 L 7.464844 11.007812 C 7.457031 11.035156 7.453125 11.066406 7.449219 11.097656 Z M 7.4375 11.328125 L 7.535156 11.242188 L 7.445312 11.132812 C 7.4375 11.199219 7.4375 11.261719 7.4375 11.328125 Z M 8.085938 11.113281 L 8.183594 11.027344 L 8.023438 10.835938 L 7.925781 10.925781 Z M 7.96875 11.21875 L 8.066406 11.128906 L 7.90625 10.941406 L 7.8125 11.027344 Z M 7.851562 11.324219 L 7.949219 11.234375 L 7.792969 11.046875 L 7.691406 11.136719 Z M 7.730469 11.433594 L 7.832031 11.339844 L 7.671875 11.152344 L 7.574219 11.242188 Z M 7.605469 11.542969 L 7.710938 11.449219 L 7.550781 11.261719 L 7.449219 11.355469 Z M 7.496094 11.644531 L 7.585938 11.5625 L 7.4375 11.386719 C 7.445312 11.460938 7.453125 11.535156 7.464844 11.609375 Z M 7.476562 11.664062 L 7.476562 11.660156 Z M 8.253906 11.308594 L 8.347656 11.222656 L 8.199219 11.046875 L 8.105469 11.132812 Z M 8.136719 11.414062 L 8.234375 11.328125 L 8.082031 11.152344 L 7.988281 11.238281 Z M 8.019531 11.523438 L 8.117188 11.433594 L 7.96875 11.253906 L 7.867188 11.34375 Z M 7.898438 11.632812 L 8 11.539062 L 7.847656 11.363281 L 7.75 11.453125 Z M 7.777344 11.746094 L 7.878906 11.648438 L 7.730469 11.46875 L 7.625 11.566406 Z M 7.667969 11.84375 L 7.757812 11.761719 L 7.605469 11.582031 L 7.511719 11.664062 Z M 7.558594 11.941406 L 7.648438 11.863281 L 7.496094 11.683594 L 7.484375 11.691406 C 7.5 11.777344 7.527344 11.859375 7.558594 11.941406 Z M 8.421875 11.507812 L 8.515625 11.421875 L 8.363281 11.242188 L 8.269531 11.332031 Z M 8.304688 11.613281 L 8.402344 11.527344 L 8.25 11.347656 L 8.15625 11.4375 Z M 8.1875 11.722656 L 8.285156 11.632812 L 8.132812 11.453125 L 8.035156 11.542969 Z M 8.070312 11.832031 L 8.167969 11.738281 L 8.015625 11.5625 L 7.917969 11.652344 Z M 7.945312 11.945312 L 8.050781 11.847656 L 7.898438 11.671875 L 7.792969 11.765625 Z M 7.835938 12.046875 L 7.925781 11.960938 L 7.773438 11.78125 L 7.683594 11.863281 Z M 7.71875 12.152344 L 7.816406 12.0625 L 7.664062 11.882812 L 7.566406 11.96875 C 7.570312 11.972656 7.570312 11.976562 7.574219 11.980469 Z M 7.671875 12.199219 L 7.699219 12.171875 L 7.601562 12.054688 C 7.625 12.101562 7.644531 12.148438 7.671875 12.199219 Z M 8.582031 11.695312 L 8.675781 11.613281 L 8.53125 11.441406 L 8.4375 11.527344 Z M 8.464844 11.804688 L 8.5625 11.714844 L 8.417969 11.546875 L 8.320312 11.636719 Z M 8.347656 11.910156 L 8.445312 11.820312 L 8.300781 11.652344 L 8.207031 11.742188 Z M 8.226562 12.019531 L 8.328125 11.929688 L 8.183594 11.761719 L 8.085938 11.851562 Z M 8.101562 12.132812 L 8.207031 12.035156 L 8.066406 11.871094 L 7.960938 11.964844 Z M 7.992188 12.230469 L 8.082031 12.148438 L 7.941406 11.984375 L 7.855469 12.066406 Z M 7.875 12.339844 L 7.976562 12.25 L 7.832031 12.082031 L 7.734375 12.171875 Z M 7.796875 12.410156 L 7.855469 12.355469 L 7.71875 12.191406 L 7.683594 12.222656 C 7.714844 12.285156 7.753906 12.347656 7.796875 12.410156 Z M 9.085938 12.292969 L 9.175781 12.210938 L 9.027344 12.035156 L 8.9375 12.117188 Z M 8.96875 12.402344 L 9.066406 12.3125 L 8.917969 12.136719 L 8.820312 12.226562 Z M 8.851562 12.507812 L 8.949219 12.417969 L 8.800781 12.242188 L 8.703125 12.332031 Z M 8.730469 12.617188 L 8.832031 12.527344 L 8.683594 12.351562 L 8.585938 12.441406 Z M 8.609375 12.730469 L 8.714844 12.636719 L 8.5625 12.460938 L 8.460938 12.554688 Z M 8.503906 12.832031 L 8.589844 12.75 L 8.441406 12.574219 L 8.351562 12.65625 Z M 8.382812 12.941406 L 8.484375 12.847656 L 8.335938 12.671875 L 8.234375 12.761719 Z M 8.332031 12.988281 L 8.363281 12.957031 L 8.214844 12.78125 L 8.152344 12.835938 C 8.210938 12.890625 8.269531 12.941406 8.332031 12.988281 Z M 8.382812 12.976562 L 8.351562 13.003906 C 8.394531 13.035156 8.4375 13.066406 8.480469 13.089844 Z M 9.25 12.492188 L 9.34375 12.410156 L 9.195312 12.230469 L 9.101562 12.316406 Z M 9.132812 12.597656 L 9.230469 12.507812 L 9.082031 12.332031 L 8.984375 12.421875 Z M 9.015625 12.703125 L 9.113281 12.617188 L 8.964844 12.441406 L 8.867188 12.53125 Z M 8.898438 12.8125 L 8.996094 12.722656 L 8.847656 12.546875 L 8.75 12.640625 Z M 8.773438 12.925781 L 8.878906 12.832031 L 8.730469 12.65625 L 8.628906 12.753906 Z M 8.667969 13.023438 L 8.753906 12.945312 L 8.609375 12.769531 L 8.519531 12.851562 Z M 8.546875 13.132812 L 8.648438 13.042969 L 8.5 12.867188 L 8.402344 12.960938 Z M 9.417969 12.6875 L 9.507812 12.605469 L 9.359375 12.429688 L 9.269531 12.511719 Z M 9.296875 12.792969 L 9.398438 12.703125 L 9.25 12.53125 L 9.152344 12.617188 Z M 9.179688 12.898438 L 9.277344 12.808594 L 9.132812 12.636719 L 9.035156 12.726562 Z M 9.058594 13.007812 L 9.160156 12.917969 L 9.015625 12.742188 L 8.914062 12.835938 Z M 8.9375 13.117188 L 9.039062 13.023438 L 8.894531 12.851562 L 8.792969 12.945312 Z M 8.828125 13.214844 L 8.917969 13.136719 L 8.773438 12.964844 L 8.683594 13.046875 Z M 8.789062 13.25 L 8.808594 13.234375 L 8.664062 13.0625 L 8.574219 13.148438 C 8.644531 13.1875 8.714844 13.222656 8.789062 13.25 Z M 8.828125 13.253906 L 8.816406 13.261719 C 8.824219 13.265625 8.832031 13.269531 8.84375 13.269531 Z M 9.582031 12.878906 L 9.671875 12.800781 L 9.523438 12.625 L 9.433594 12.707031 Z M 9.464844 12.988281 L 9.5625 12.898438 L 9.414062 12.722656 L 9.316406 12.8125 Z M 9.34375 13.09375 L 9.441406 13.003906 L 9.296875 12.832031 L 9.195312 12.917969 Z M 9.222656 13.203125 L 9.324219 13.109375 L 9.175781 12.9375 L 9.078125 13.027344 Z M 9.101562 13.3125 L 9.203125 13.21875 L 9.058594 13.046875 L 8.953125 13.136719 Z M 9.074219 13.335938 L 9.082031 13.332031 L 8.933594 13.15625 L 8.84375 13.234375 L 8.890625 13.289062 C 8.953125 13.308594 9.011719 13.324219 9.074219 13.335938 Z M 9.222656 13.238281 L 9.117188 13.332031 L 9.128906 13.347656 C 9.195312 13.355469 9.261719 13.363281 9.328125 13.363281 Z M 9.722656 13.050781 L 9.8125 12.96875 L 9.6875 12.820312 L 9.597656 12.902344 Z M 9.605469 13.15625 L 9.703125 13.066406 L 9.578125 12.917969 L 9.480469 13.007812 Z M 9.484375 13.261719 L 9.585938 13.171875 L 9.460938 13.023438 L 9.363281 13.113281 Z M 9.367188 13.363281 L 9.464844 13.277344 L 9.34375 13.132812 L 9.242188 13.222656 L 9.359375 13.363281 Z M 9.484375 13.296875 L 9.410156 13.363281 C 9.449219 13.359375 9.488281 13.355469 9.527344 13.351562 Z M 9.601562 13.195312 L 9.503906 13.28125 L 9.554688 13.34375 C 9.605469 13.335938 9.652344 13.324219 9.699219 13.308594 Z M 9.722656 13.089844 L 9.621094 13.175781 L 9.726562 13.296875 C 9.769531 13.28125 9.8125 13.261719 9.851562 13.242188 Z M 9.832031 12.992188 L 9.742188 13.070312 L 9.875 13.226562 C 9.910156 13.207031 9.941406 13.1875 9.976562 13.164062 Z M 8.746094 11.890625 L 8.839844 11.808594 L 8.691406 11.632812 L 8.597656 11.71875 Z M 8.628906 11.996094 L 8.726562 11.910156 L 8.578125 11.734375 L 8.480469 11.824219 Z M 8.511719 12.105469 L 8.609375 12.015625 L 8.460938 11.839844 L 8.363281 11.929688 Z M 8.390625 12.214844 L 8.492188 12.121094 L 8.34375 11.949219 L 8.242188 12.039062 Z M 8.265625 12.324219 L 8.371094 12.230469 L 8.222656 12.058594 L 8.121094 12.152344 Z M 8.160156 12.425781 L 8.25 12.34375 L 8.101562 12.167969 L 8.011719 12.25 Z M 8.039062 12.535156 L 8.140625 12.441406 L 7.992188 12.269531 L 7.890625 12.359375 Z M 7.949219 12.617188 L 8.019531 12.550781 L 7.875 12.375 L 7.808594 12.433594 C 7.847656 12.488281 7.886719 12.546875 7.933594 12.597656 C 7.9375 12.605469 7.941406 12.613281 7.949219 12.617188 Z M 8.039062 12.570312 L 7.964844 12.636719 C 8.019531 12.703125 8.074219 12.761719 8.132812 12.820312 L 8.199219 12.757812 Z M 8.15625 12.460938 L 8.058594 12.554688 L 8.21875 12.742188 L 8.316406 12.652344 Z M 8.265625 12.363281 L 8.175781 12.445312 L 8.335938 12.632812 L 8.425781 12.550781 Z M 8.386719 12.25 L 8.285156 12.347656 L 8.445312 12.535156 L 8.546875 12.441406 Z M 8.507812 12.144531 L 8.40625 12.234375 L 8.566406 12.421875 L 8.667969 12.332031 Z M 8.625 12.035156 L 8.527344 12.125 L 8.6875 12.3125 L 8.785156 12.222656 Z M 8.742188 11.929688 L 8.644531 12.019531 L 8.804688 12.207031 L 8.898438 12.117188 Z M 8.855469 11.828125 L 8.761719 11.910156 L 8.917969 12.097656 L 9.011719 12.015625 Z M 7.917969 10.5625 L 7.96875 10.519531 L 7.839844 10.363281 C 7.824219 10.378906 7.804688 10.390625 7.789062 10.40625 C 7.769531 10.421875 7.753906 10.4375 7.738281 10.453125 L 7.867188 10.609375 Z M 8.078125 10.753906 L 8.128906 10.707031 L 7.984375 10.539062 L 7.933594 10.582031 L 7.882812 10.628906 L 8.027344 10.800781 Z M 8.253906 10.960938 L 8.304688 10.917969 L 8.144531 10.730469 L 8.09375 10.773438 L 8.042969 10.820312 L 8.203125 11.007812 Z M 8.417969 11.160156 L 8.46875 11.117188 L 8.320312 10.9375 L 8.269531 10.984375 L 8.21875 11.027344 L 8.367188 11.207031 Z M 8.585938 11.359375 L 8.636719 11.316406 L 8.484375 11.136719 L 8.433594 11.179688 L 8.386719 11.226562 L 8.535156 11.402344 Z M 8.742188 11.546875 L 8.792969 11.503906 L 8.652344 11.335938 L 8.601562 11.378906 L 8.550781 11.425781 L 8.691406 11.59375 Z M 8.90625 11.746094 L 8.957031 11.699219 L 8.808594 11.527344 L 8.761719 11.570312 L 8.710938 11.613281 L 8.855469 11.789062 Z M 9.078125 11.953125 L 9.128906 11.910156 L 8.972656 11.722656 L 8.921875 11.765625 L 8.875 11.808594 L 9.03125 11.996094 Z M 9.242188 12.148438 L 9.292969 12.105469 L 9.144531 11.929688 L 9.097656 11.972656 L 9.046875 12.015625 L 9.195312 12.191406 Z M 9.410156 12.347656 L 9.460938 12.304688 L 9.3125 12.125 L 9.261719 12.167969 L 9.214844 12.210938 L 9.363281 12.390625 Z M 9.574219 12.542969 L 9.625 12.5 L 9.476562 12.324219 L 9.429688 12.367188 L 9.378906 12.410156 L 9.527344 12.585938 Z M 9.738281 12.738281 L 9.785156 12.695312 L 9.640625 12.519531 L 9.59375 12.5625 L 9.542969 12.605469 L 9.691406 12.78125 Z M 9.882812 12.910156 L 9.929688 12.867188 L 9.804688 12.714844 L 9.753906 12.757812 L 9.707031 12.800781 L 9.832031 12.953125 Z M 10.066406 13.082031 C 10.074219 13.078125 10.082031 13.070312 10.089844 13.0625 L 9.945312 12.886719 L 9.851562 12.972656 L 9.996094 13.144531 C 10.003906 13.140625 10.011719 13.132812 10.019531 13.125 C 10.035156 13.113281 10.050781 13.097656 10.066406 13.082031 Z M 9.289062 13.523438 C 9.316406 13.539062 9.355469 13.558594 9.398438 13.578125 C 9.824219 13.789062 10.441406 14.125 10.910156 14.464844 C 11.058594 14.574219 11.132812 14.664062 11.246094 14.804688 L 13.046875 16.953125 C 13.046875 16.976562 13.054688 16.996094 13.058594 17.015625 C 13.078125 17.054688 13.109375 17.089844 13.148438 17.109375 C 13.210938 17.140625 13.292969 17.113281 13.351562 17.058594 C 13.414062 17.007812 13.453125 16.929688 13.429688 16.859375 C 13.417969 16.816406 13.386719 16.777344 13.351562 16.753906 C 13.335938 16.746094 13.316406 16.738281 13.296875 16.730469 L 11.496094 14.578125 C 11.382812 14.441406 11.304688 14.355469 11.222656 14.1875 C 10.96875 13.660156 10.734375 12.984375 10.59375 12.515625 C 10.582031 12.464844 10.566406 12.425781 10.558594 12.394531 C 10.617188 11.867188 10.421875 11.253906 9.984375 10.75 C 9.378906 10.050781 8.503906 9.800781 7.894531 10.113281 C 7.730469 10.195312 7.609375 10.300781 7.503906 10.453125 C 7.097656 11.027344 7.203125 11.96875 7.796875 12.699219 C 8.210938 13.214844 8.773438 13.507812 9.289062 13.523438 Z M 10.964844 14.253906 C 10.945312 14.246094 10.925781 14.230469 10.917969 14.226562 C 10.785156 14.140625 10.5 13.964844 10.234375 13.816406 C 9.964844 13.667969 9.714844 13.535156 9.644531 13.492188 C 9.785156 13.457031 9.917969 13.398438 10.039062 13.3125 C 10.121094 13.253906 10.210938 13.171875 10.273438 13.097656 C 10.359375 12.996094 10.425781 12.878906 10.472656 12.75 C 10.507812 12.828125 10.59375 13.105469 10.699219 13.402344 C 10.804688 13.695312 10.929688 14.011719 10.992188 14.160156 C 10.996094 14.171875 11.007812 14.191406 11.011719 14.214844 C 11.027344 14.261719 11.007812 14.277344 10.964844 14.253906 " fill-opacity="1" fill-rule="evenodd"/><path fill="rgb(100%, 100%, 100%)" d="M 15.378906 10.414062 L 15.476562 10.503906 L 15.605469 10.347656 C 15.570312 10.324219 15.53125 10.300781 15.492188 10.28125 Z M 15.261719 10.3125 L 15.359375 10.398438 L 15.464844 10.269531 C 15.425781 10.25 15.382812 10.230469 15.339844 10.21875 Z M 15.140625 10.207031 L 15.242188 10.296875 L 15.3125 10.210938 C 15.265625 10.195312 15.21875 10.183594 15.167969 10.175781 Z M 15.097656 10.167969 L 15.121094 10.191406 L 15.136719 10.171875 C 15.125 10.171875 15.109375 10.171875 15.097656 10.167969 Z M 15.222656 10.605469 L 15.320312 10.691406 L 15.460938 10.523438 L 15.363281 10.433594 Z M 15.105469 10.503906 L 15.203125 10.589844 L 15.34375 10.417969 L 15.246094 10.332031 Z M 14.984375 10.398438 L 15.082031 10.484375 L 15.226562 10.316406 L 15.125 10.226562 Z M 14.863281 10.292969 L 14.964844 10.378906 L 15.105469 10.210938 L 15.054688 10.167969 C 15.027344 10.164062 14.996094 10.164062 14.96875 10.164062 Z M 14.742188 10.1875 L 14.84375 10.273438 L 14.933594 10.164062 C 14.871094 10.167969 14.808594 10.175781 14.742188 10.1875 Z M 15.046875 10.816406 L 15.144531 10.902344 L 15.300781 10.710938 L 15.203125 10.625 Z M 14.929688 10.714844 L 15.027344 10.800781 L 15.183594 10.609375 L 15.085938 10.523438 Z M 14.808594 10.609375 L 14.910156 10.695312 L 15.066406 10.503906 L 14.96875 10.417969 Z M 14.6875 10.5 L 14.789062 10.589844 L 14.949219 10.402344 L 14.847656 10.3125 Z M 14.5625 10.390625 L 14.667969 10.484375 L 14.828125 10.292969 L 14.71875 10.199219 Z M 14.449219 10.292969 L 14.542969 10.375 L 14.6875 10.195312 C 14.621094 10.210938 14.550781 10.230469 14.480469 10.257812 Z M 14.429688 10.277344 L 14.429688 10.273438 Z M 14.882812 11.015625 L 14.980469 11.101562 L 15.128906 10.921875 L 15.03125 10.835938 Z M 14.765625 10.914062 L 14.863281 11 L 15.011719 10.820312 L 14.914062 10.734375 Z M 14.644531 10.808594 L 14.742188 10.894531 L 14.890625 10.714844 L 14.792969 10.628906 Z M 14.523438 10.703125 L 14.625 10.792969 L 14.773438 10.613281 L 14.671875 10.523438 Z M 14.394531 10.59375 L 14.5 10.683594 L 14.652344 10.503906 L 14.546875 10.410156 Z M 14.28125 10.496094 L 14.375 10.574219 L 14.523438 10.394531 L 14.433594 10.3125 Z M 14.171875 10.398438 L 14.261719 10.480469 L 14.414062 10.296875 L 14.402344 10.285156 C 14.324219 10.320312 14.246094 10.355469 14.171875 10.398438 Z M 14.71875 11.214844 L 14.8125 11.300781 L 14.960938 11.121094 L 14.867188 11.035156 Z M 14.597656 11.113281 L 14.695312 11.199219 L 14.84375 11.019531 L 14.746094 10.933594 Z M 14.476562 11.007812 L 14.578125 11.097656 L 14.726562 10.914062 L 14.625 10.828125 Z M 14.355469 10.902344 L 14.457031 10.992188 L 14.605469 10.8125 L 14.503906 10.722656 Z M 14.226562 10.796875 L 14.335938 10.886719 L 14.484375 10.707031 L 14.378906 10.613281 Z M 14.117188 10.699219 L 14.207031 10.777344 L 14.359375 10.597656 L 14.265625 10.515625 Z M 13.992188 10.59375 L 14.097656 10.679688 L 14.246094 10.5 L 14.148438 10.414062 C 14.144531 10.414062 14.140625 10.417969 14.136719 10.421875 Z M 13.945312 10.550781 L 13.976562 10.578125 L 14.070312 10.460938 C 14.027344 10.488281 13.988281 10.519531 13.945312 10.550781 Z M 14.558594 11.40625 L 14.65625 11.488281 L 14.796875 11.320312 L 14.699219 11.238281 Z M 14.441406 11.304688 L 14.539062 11.390625 L 14.679688 11.21875 L 14.582031 11.132812 Z M 14.320312 11.199219 L 14.421875 11.285156 L 14.558594 11.117188 L 14.460938 11.03125 Z M 14.199219 11.09375 L 14.300781 11.179688 L 14.441406 11.011719 L 14.335938 10.925781 Z M 14.070312 10.984375 L 14.179688 11.074219 L 14.316406 10.90625 L 14.210938 10.816406 Z M 13.960938 10.886719 L 14.050781 10.964844 L 14.191406 10.796875 L 14.097656 10.71875 Z M 13.839844 10.78125 L 13.941406 10.871094 L 14.078125 10.703125 L 13.976562 10.613281 Z M 13.757812 10.710938 L 13.820312 10.765625 L 13.957031 10.597656 L 13.921875 10.566406 C 13.867188 10.613281 13.8125 10.660156 13.757812 10.710938 Z M 14.0625 12.007812 L 14.15625 12.089844 L 14.300781 11.914062 L 14.207031 11.832031 Z M 13.941406 11.90625 L 14.039062 11.992188 L 14.1875 11.816406 L 14.085938 11.730469 Z M 13.820312 11.800781 L 13.921875 11.886719 L 14.066406 11.710938 L 13.96875 11.625 Z M 13.695312 11.695312 L 13.800781 11.785156 L 13.945312 11.609375 L 13.84375 11.519531 Z M 13.570312 11.589844 L 13.675781 11.679688 L 13.824219 11.503906 L 13.71875 11.410156 Z M 13.460938 11.492188 L 13.550781 11.570312 L 13.699219 11.394531 L 13.605469 11.316406 Z M 13.335938 11.386719 L 13.441406 11.476562 L 13.585938 11.296875 L 13.484375 11.210938 Z M 13.285156 11.339844 L 13.320312 11.371094 L 13.464844 11.195312 L 13.402344 11.136719 C 13.359375 11.203125 13.320312 11.273438 13.285156 11.339844 Z M 13.300781 11.394531 L 13.269531 11.367188 C 13.246094 11.414062 13.226562 11.460938 13.207031 11.507812 Z M 13.894531 12.207031 L 13.988281 12.289062 L 14.136719 12.109375 L 14.042969 12.03125 Z M 13.777344 12.105469 L 13.875 12.191406 L 14.023438 12.011719 L 13.921875 11.925781 Z M 13.65625 12 L 13.757812 12.085938 L 13.902344 11.910156 L 13.800781 11.824219 Z M 13.535156 11.894531 L 13.636719 11.980469 L 13.78125 11.804688 L 13.679688 11.71875 Z M 13.410156 11.785156 L 13.515625 11.875 L 13.660156 11.699219 L 13.554688 11.609375 Z M 13.296875 11.6875 L 13.386719 11.769531 L 13.535156 11.59375 L 13.441406 11.515625 Z M 13.175781 11.582031 L 13.277344 11.671875 L 13.421875 11.496094 L 13.320312 11.410156 Z M 13.734375 12.40625 L 13.824219 12.484375 L 13.96875 12.308594 L 13.878906 12.230469 Z M 13.613281 12.300781 L 13.714844 12.386719 L 13.859375 12.210938 L 13.757812 12.125 Z M 13.492188 12.195312 L 13.59375 12.28125 L 13.738281 12.109375 L 13.636719 12.019531 Z M 13.371094 12.089844 L 13.472656 12.175781 L 13.617188 12.003906 L 13.515625 11.914062 Z M 13.25 11.980469 L 13.351562 12.070312 L 13.496094 11.898438 L 13.390625 11.804688 Z M 13.136719 11.882812 L 13.226562 11.960938 L 13.371094 11.789062 L 13.28125 11.710938 Z M 13.097656 11.847656 L 13.121094 11.867188 L 13.261719 11.695312 L 13.167969 11.613281 C 13.136719 11.691406 13.117188 11.769531 13.097656 11.847656 Z M 13.101562 11.886719 L 13.09375 11.878906 C 13.089844 11.886719 13.089844 11.894531 13.085938 11.90625 Z M 13.570312 12.601562 L 13.660156 12.679688 L 13.808594 12.503906 L 13.714844 12.425781 Z M 13.449219 12.496094 L 13.550781 12.582031 L 13.695312 12.40625 L 13.597656 12.320312 Z M 13.332031 12.390625 L 13.429688 12.476562 L 13.578125 12.300781 L 13.476562 12.214844 Z M 13.210938 12.285156 L 13.3125 12.375 L 13.457031 12.199219 L 13.355469 12.109375 Z M 13.085938 12.175781 L 13.191406 12.265625 L 13.335938 12.089844 L 13.230469 12 Z M 13.058594 12.152344 L 13.066406 12.15625 L 13.210938 11.980469 L 13.121094 11.902344 L 13.078125 11.957031 C 13.066406 12.023438 13.0625 12.085938 13.058594 12.152344 Z M 13.171875 12.285156 L 13.070312 12.195312 L 13.058594 12.210938 C 13.058594 12.277344 13.058594 12.347656 13.070312 12.410156 Z M 13.429688 12.769531 L 13.519531 12.851562 L 13.644531 12.699219 L 13.554688 12.621094 Z M 13.308594 12.664062 L 13.410156 12.753906 L 13.535156 12.601562 L 13.433594 12.515625 Z M 13.191406 12.558594 L 13.289062 12.648438 L 13.414062 12.5 L 13.3125 12.410156 Z M 13.074219 12.453125 L 13.171875 12.539062 L 13.292969 12.394531 L 13.191406 12.304688 L 13.074219 12.449219 Z M 13.15625 12.5625 L 13.082031 12.496094 C 13.089844 12.539062 13.101562 12.574219 13.113281 12.613281 Z M 13.273438 12.667969 L 13.175781 12.578125 L 13.121094 12.644531 C 13.136719 12.691406 13.15625 12.738281 13.179688 12.785156 Z M 13.390625 12.773438 L 13.292969 12.6875 L 13.191406 12.808594 C 13.210938 12.851562 13.238281 12.890625 13.261719 12.929688 Z M 13.5 12.871094 L 13.414062 12.792969 L 13.28125 12.953125 C 13.304688 12.984375 13.332031 13.015625 13.359375 13.042969 Z M 14.398438 11.601562 L 14.492188 11.683594 L 14.636719 11.507812 L 14.542969 11.425781 Z M 14.277344 11.5 L 14.375 11.585938 L 14.523438 11.410156 L 14.421875 11.324219 Z M 14.15625 11.394531 L 14.257812 11.480469 L 14.402344 11.304688 L 14.304688 11.21875 Z M 14.035156 11.289062 L 14.136719 11.378906 L 14.28125 11.203125 L 14.179688 11.113281 Z M 13.910156 11.179688 L 14.015625 11.269531 L 14.160156 11.097656 L 14.054688 11.003906 Z M 13.796875 11.082031 L 13.890625 11.164062 L 14.035156 10.988281 L 13.945312 10.90625 Z M 13.675781 10.976562 L 13.777344 11.066406 L 13.925781 10.890625 L 13.820312 10.800781 Z M 13.582031 10.894531 L 13.660156 10.960938 L 13.804688 10.785156 L 13.738281 10.730469 C 13.691406 10.777344 13.644531 10.824219 13.597656 10.878906 C 13.59375 10.882812 13.589844 10.890625 13.582031 10.894531 Z M 13.640625 10.980469 L 13.566406 10.917969 C 13.511719 10.980469 13.460938 11.046875 13.417969 11.117188 L 13.484375 11.171875 Z M 13.761719 11.085938 L 13.660156 11 L 13.5 11.1875 L 13.605469 11.277344 Z M 13.871094 11.183594 L 13.78125 11.105469 L 13.625 11.292969 L 13.714844 11.375 Z M 14 11.292969 L 13.890625 11.199219 L 13.734375 11.390625 L 13.839844 11.480469 Z M 14.121094 11.398438 L 14.019531 11.308594 L 13.859375 11.5 L 13.964844 11.585938 Z M 14.242188 11.503906 L 14.140625 11.414062 L 13.984375 11.605469 L 14.082031 11.691406 Z M 14.359375 11.605469 L 14.261719 11.519531 L 14.105469 11.707031 L 14.203125 11.792969 Z M 14.472656 11.707031 L 14.378906 11.621094 L 14.222656 11.8125 L 14.316406 11.894531 Z M 15.71875 10.714844 L 15.621094 10.628906 L 15.746094 10.476562 C 15.777344 10.507812 15.804688 10.546875 15.832031 10.582031 Z M 15.832031 10.820312 L 15.738281 10.734375 L 15.847656 10.605469 C 15.871094 10.644531 15.894531 10.683594 15.914062 10.726562 Z M 15.953125 10.925781 L 15.851562 10.839844 L 15.925781 10.753906 C 15.945312 10.800781 15.960938 10.847656 15.976562 10.898438 Z M 15.996094 10.964844 L 15.972656 10.945312 L 15.984375 10.929688 C 15.988281 10.941406 15.992188 10.953125 15.996094 10.964844 Z M 15.558594 10.90625 L 15.460938 10.816406 L 15.605469 10.648438 L 15.699219 10.734375 Z M 15.675781 11.011719 L 15.578125 10.921875 L 15.71875 10.753906 L 15.816406 10.839844 Z M 15.792969 11.117188 L 15.695312 11.027344 L 15.835938 10.859375 L 15.9375 10.945312 Z M 15.914062 11.222656 L 15.8125 11.132812 L 15.957031 10.964844 L 16.003906 11.007812 C 16.011719 11.039062 16.015625 11.066406 16.019531 11.097656 Z M 16.03125 11.332031 L 15.933594 11.242188 L 16.023438 11.136719 C 16.03125 11.199219 16.03125 11.265625 16.03125 11.332031 Z M 15.382812 11.113281 L 15.285156 11.027344 L 15.445312 10.839844 L 15.539062 10.925781 Z M 15.496094 11.21875 L 15.402344 11.132812 L 15.558594 10.945312 L 15.65625 11.03125 Z M 15.617188 11.324219 L 15.515625 11.238281 L 15.675781 11.046875 L 15.773438 11.136719 Z M 15.734375 11.433594 L 15.636719 11.34375 L 15.792969 11.152344 L 15.894531 11.246094 Z M 15.859375 11.546875 L 15.757812 11.453125 L 15.914062 11.261719 L 16.019531 11.355469 Z M 15.972656 11.644531 L 15.878906 11.5625 L 16.027344 11.386719 C 16.023438 11.460938 16.015625 11.535156 16 11.609375 Z M 15.992188 11.664062 Z M 15.214844 11.3125 L 15.121094 11.226562 L 15.269531 11.046875 L 15.363281 11.132812 Z M 15.332031 11.417969 L 15.234375 11.328125 L 15.382812 11.152344 L 15.480469 11.238281 Z M 15.449219 11.523438 L 15.351562 11.433594 L 15.5 11.257812 L 15.597656 11.34375 Z M 15.566406 11.632812 L 15.46875 11.542969 L 15.617188 11.363281 L 15.71875 11.453125 Z M 15.691406 11.746094 L 15.585938 11.652344 L 15.738281 11.472656 L 15.84375 11.566406 Z M 15.800781 11.847656 L 15.710938 11.761719 L 15.863281 11.582031 L 15.953125 11.667969 Z M 15.910156 11.945312 L 15.820312 11.863281 L 15.972656 11.683594 L 15.984375 11.695312 C 15.964844 11.777344 15.941406 11.859375 15.910156 11.945312 Z M 15.046875 11.507812 L 14.953125 11.421875 L 15.101562 11.246094 L 15.199219 11.332031 Z M 15.164062 11.617188 L 15.066406 11.527344 L 15.21875 11.347656 L 15.3125 11.4375 Z M 15.28125 11.722656 L 15.183594 11.632812 L 15.332031 11.457031 L 15.429688 11.542969 Z M 15.398438 11.832031 L 15.300781 11.742188 L 15.449219 11.5625 L 15.550781 11.652344 Z M 15.523438 11.945312 L 15.417969 11.851562 L 15.570312 11.671875 L 15.675781 11.765625 Z M 15.632812 12.046875 L 15.542969 11.964844 L 15.695312 11.785156 L 15.785156 11.867188 Z M 15.75 12.15625 L 15.652344 12.0625 L 15.804688 11.882812 L 15.898438 11.972656 C 15.898438 11.976562 15.898438 11.980469 15.894531 11.984375 Z M 15.796875 12.199219 L 15.769531 12.171875 L 15.863281 12.054688 C 15.84375 12.105469 15.820312 12.152344 15.796875 12.199219 Z M 14.886719 11.699219 L 14.792969 11.613281 L 14.9375 11.445312 L 15.027344 11.53125 Z M 15.003906 11.804688 L 14.90625 11.714844 L 15.050781 11.546875 L 15.144531 11.636719 Z M 15.121094 11.910156 L 15.023438 11.820312 L 15.164062 11.65625 L 15.261719 11.742188 Z M 15.242188 12.019531 L 15.140625 11.929688 L 15.28125 11.761719 L 15.382812 11.851562 Z M 15.363281 12.132812 L 15.261719 12.039062 L 15.402344 11.871094 L 15.503906 11.964844 Z M 15.472656 12.230469 L 15.382812 12.148438 L 15.523438 11.984375 L 15.613281 12.066406 Z M 15.59375 12.339844 L 15.492188 12.25 L 15.632812 12.085938 L 15.734375 12.175781 Z M 15.671875 12.414062 L 15.609375 12.355469 L 15.75 12.191406 L 15.785156 12.222656 C 15.75 12.289062 15.714844 12.351562 15.671875 12.414062 Z M 14.382812 12.292969 L 14.292969 12.210938 L 14.4375 12.035156 L 14.53125 12.121094 Z M 14.5 12.402344 L 14.402344 12.3125 L 14.550781 12.136719 L 14.648438 12.226562 Z M 14.617188 12.511719 L 14.519531 12.421875 L 14.667969 12.246094 L 14.765625 12.335938 Z M 14.734375 12.621094 L 14.636719 12.527344 L 14.785156 12.351562 L 14.882812 12.445312 Z M 14.859375 12.730469 L 14.753906 12.636719 L 14.902344 12.460938 L 15.007812 12.554688 Z M 14.964844 12.832031 L 14.878906 12.75 L 15.027344 12.574219 L 15.113281 12.65625 Z M 15.085938 12.941406 L 14.984375 12.847656 L 15.132812 12.671875 L 15.234375 12.765625 Z M 15.136719 12.988281 L 15.101562 12.957031 L 15.253906 12.78125 L 15.316406 12.839844 C 15.257812 12.894531 15.199219 12.945312 15.136719 12.988281 Z M 15.085938 12.980469 L 15.113281 13.007812 C 15.074219 13.039062 15.03125 13.066406 14.988281 13.09375 Z M 14.214844 12.492188 L 14.125 12.410156 L 14.273438 12.230469 L 14.367188 12.316406 Z M 14.332031 12.597656 L 14.234375 12.511719 L 14.382812 12.332031 L 14.480469 12.421875 Z M 14.449219 12.707031 L 14.351562 12.617188 L 14.5 12.441406 L 14.597656 12.53125 Z M 14.570312 12.816406 L 14.472656 12.722656 L 14.617188 12.550781 L 14.71875 12.640625 Z M 14.695312 12.925781 L 14.589844 12.832031 L 14.738281 12.660156 L 14.839844 12.753906 Z M 14.800781 13.027344 L 14.710938 12.945312 L 14.859375 12.769531 L 14.949219 12.851562 Z M 14.921875 13.132812 L 14.820312 13.042969 L 14.96875 12.871094 L 15.066406 12.960938 Z M 14.050781 12.6875 L 13.960938 12.605469 L 14.109375 12.429688 L 14.199219 12.511719 Z M 14.167969 12.792969 L 14.070312 12.707031 L 14.21875 12.53125 L 14.316406 12.621094 Z M 14.289062 12.898438 L 14.1875 12.8125 L 14.335938 12.636719 L 14.433594 12.726562 Z M 14.40625 13.007812 L 14.308594 12.917969 L 14.453125 12.746094 L 14.550781 12.835938 Z M 14.53125 13.121094 L 14.425781 13.027344 L 14.574219 12.855469 L 14.675781 12.949219 Z M 14.640625 13.214844 L 14.550781 13.136719 L 14.695312 12.964844 L 14.785156 13.046875 Z M 14.679688 13.253906 L 14.660156 13.234375 L 14.800781 13.0625 L 14.894531 13.148438 C 14.824219 13.1875 14.75 13.222656 14.679688 13.253906 Z M 14.640625 13.253906 L 14.652344 13.261719 C 14.644531 13.265625 14.632812 13.269531 14.625 13.273438 Z M 13.886719 12.882812 L 13.796875 12.800781 L 13.945312 12.625 L 14.035156 12.707031 Z M 14.003906 12.988281 L 13.90625 12.898438 L 14.054688 12.726562 L 14.152344 12.8125 Z M 14.121094 13.09375 L 14.023438 13.007812 L 14.171875 12.832031 L 14.269531 12.921875 Z M 14.242188 13.203125 L 14.144531 13.113281 L 14.289062 12.9375 L 14.390625 13.027344 Z M 14.367188 13.3125 L 14.261719 13.222656 L 14.410156 13.046875 L 14.515625 13.140625 Z M 14.394531 13.339844 L 14.386719 13.332031 L 14.535156 13.15625 L 14.621094 13.238281 L 14.578125 13.289062 C 14.515625 13.308594 14.453125 13.324219 14.394531 13.339844 Z M 14.246094 13.242188 L 14.347656 13.332031 L 14.335938 13.347656 C 14.269531 13.359375 14.207031 13.363281 14.140625 13.367188 Z M 13.742188 13.050781 L 13.652344 12.972656 L 13.78125 12.820312 L 13.871094 12.902344 Z M 13.863281 13.15625 L 13.765625 13.066406 L 13.890625 12.917969 L 13.988281 13.007812 Z M 13.984375 13.261719 L 13.882812 13.171875 L 14.007812 13.027344 L 14.105469 13.113281 Z M 14.101562 13.363281 L 14.003906 13.277344 L 14.125 13.132812 L 14.226562 13.222656 L 14.105469 13.363281 Z M 13.984375 13.300781 L 14.058594 13.363281 C 14.015625 13.359375 13.980469 13.355469 13.941406 13.351562 Z M 13.867188 13.195312 L 13.964844 13.28125 L 13.910156 13.347656 C 13.863281 13.335938 13.816406 13.324219 13.769531 13.308594 Z M 13.746094 13.089844 L 13.84375 13.175781 L 13.742188 13.300781 C 13.699219 13.285156 13.65625 13.265625 13.617188 13.242188 Z M 13.636719 12.992188 L 13.726562 13.070312 L 13.59375 13.230469 C 13.558594 13.210938 13.523438 13.1875 13.492188 13.164062 Z M 14.722656 11.894531 L 14.628906 11.808594 L 14.777344 11.632812 L 14.871094 11.71875 Z M 14.839844 12 L 14.742188 11.910156 L 14.890625 11.734375 L 14.988281 11.824219 Z M 14.957031 12.105469 L 14.859375 12.015625 L 15.007812 11.84375 L 15.105469 11.929688 Z M 15.078125 12.214844 L 14.976562 12.125 L 15.125 11.949219 L 15.222656 12.039062 Z M 15.199219 12.328125 L 15.097656 12.234375 L 15.242188 12.058594 L 15.347656 12.152344 Z M 15.308594 12.425781 L 15.21875 12.34375 L 15.367188 12.171875 L 15.457031 12.253906 Z M 15.429688 12.535156 L 15.328125 12.445312 L 15.476562 12.269531 L 15.574219 12.359375 Z M 15.519531 12.617188 L 15.445312 12.550781 L 15.59375 12.378906 L 15.65625 12.433594 C 15.621094 12.492188 15.578125 12.546875 15.535156 12.601562 C 15.53125 12.605469 15.527344 12.613281 15.519531 12.617188 Z M 15.429688 12.570312 L 15.503906 12.640625 C 15.449219 12.703125 15.390625 12.765625 15.332031 12.820312 L 15.269531 12.761719 Z M 15.3125 12.464844 L 15.410156 12.554688 L 15.25 12.746094 L 15.152344 12.652344 Z M 15.203125 12.363281 L 15.292969 12.445312 L 15.132812 12.636719 L 15.042969 12.554688 Z M 15.078125 12.253906 L 15.183594 12.347656 L 15.023438 12.535156 L 14.921875 12.441406 Z M 14.960938 12.144531 L 15.058594 12.234375 L 14.902344 12.421875 L 14.800781 12.332031 Z M 14.84375 12.039062 L 14.941406 12.125 L 14.78125 12.3125 L 14.683594 12.226562 Z M 14.726562 11.929688 L 14.824219 12.019531 L 14.664062 12.207031 L 14.566406 12.117188 Z M 14.613281 11.828125 L 14.707031 11.914062 L 14.546875 12.101562 L 14.457031 12.015625 Z M 15.550781 10.566406 L 15.496094 10.519531 L 15.625 10.363281 C 15.644531 10.378906 15.664062 10.394531 15.679688 10.40625 C 15.699219 10.421875 15.714844 10.441406 15.730469 10.457031 L 15.601562 10.609375 Z M 15.390625 10.753906 L 15.339844 10.710938 L 15.480469 10.539062 L 15.53125 10.585938 L 15.582031 10.628906 L 15.441406 10.800781 Z M 15.214844 10.964844 L 15.164062 10.917969 L 15.320312 10.730469 L 15.375 10.773438 L 15.425781 10.820312 L 15.265625 11.007812 Z M 15.050781 11.160156 L 15 11.117188 L 15.148438 10.941406 L 15.199219 10.984375 L 15.25 11.03125 L 15.101562 11.207031 Z M 14.882812 11.359375 L 14.832031 11.316406 L 14.980469 11.136719 L 15.03125 11.183594 L 15.082031 11.226562 L 14.933594 11.40625 Z M 14.726562 11.550781 L 14.675781 11.507812 L 14.816406 11.335938 L 14.867188 11.378906 L 14.917969 11.425781 L 14.773438 11.59375 Z M 14.5625 11.746094 L 14.511719 11.703125 L 14.65625 11.527344 L 14.707031 11.570312 L 14.757812 11.617188 L 14.609375 11.789062 Z M 14.386719 11.953125 L 14.339844 11.910156 L 14.496094 11.722656 L 14.542969 11.765625 L 14.59375 11.808594 L 14.4375 11.996094 Z M 14.222656 12.148438 L 14.175781 12.105469 L 14.320312 11.929688 L 14.371094 11.972656 L 14.417969 12.019531 L 14.273438 12.191406 Z M 14.058594 12.347656 L 14.007812 12.304688 L 14.15625 12.128906 L 14.207031 12.167969 L 14.253906 12.214844 L 14.105469 12.390625 Z M 13.890625 12.542969 L 13.84375 12.503906 L 13.992188 12.328125 L 14.039062 12.371094 L 14.089844 12.414062 L 13.941406 12.589844 Z M 13.730469 12.742188 L 13.679688 12.699219 L 13.828125 12.523438 L 13.875 12.566406 L 13.925781 12.609375 L 13.777344 12.785156 Z M 13.585938 12.910156 L 13.539062 12.867188 L 13.664062 12.71875 L 13.714844 12.761719 L 13.761719 12.804688 L 13.632812 12.953125 Z M 13.398438 13.085938 C 13.390625 13.078125 13.382812 13.070312 13.375 13.0625 L 13.519531 12.890625 L 13.566406 12.933594 L 13.617188 12.976562 L 13.472656 13.148438 C 13.464844 13.140625 13.457031 13.132812 13.445312 13.125 C 13.429688 13.113281 13.414062 13.097656 13.398438 13.085938 Z M 14.179688 13.527344 C 14.152344 13.539062 14.113281 13.558594 14.066406 13.582031 C 13.640625 13.789062 13.027344 14.128906 12.558594 14.46875 C 12.40625 14.574219 12.335938 14.667969 12.222656 14.804688 L 10.421875 16.957031 C 10.417969 16.976562 10.414062 16.996094 10.40625 17.015625 C 10.390625 17.054688 10.359375 17.089844 10.320312 17.109375 C 10.253906 17.144531 10.175781 17.113281 10.117188 17.058594 C 10.054688 17.007812 10.015625 16.929688 10.039062 16.859375 C 10.050781 16.816406 10.082031 16.777344 10.117188 16.757812 C 10.132812 16.746094 10.152344 16.738281 10.171875 16.734375 L 11.972656 14.582031 C 12.085938 14.441406 12.164062 14.359375 12.246094 14.1875 C 12.5 13.660156 12.734375 12.984375 12.875 12.519531 C 12.886719 12.46875 12.898438 12.425781 12.910156 12.394531 C 12.851562 11.871094 13.046875 11.253906 13.484375 10.753906 C 14.089844 10.050781 14.964844 9.804688 15.574219 10.113281 C 15.734375 10.195312 15.859375 10.304688 15.964844 10.453125 C 16.367188 11.027344 16.261719 11.96875 15.671875 12.699219 C 15.253906 13.21875 14.691406 13.507812 14.179688 13.527344 Z M 12.5 14.257812 C 12.519531 14.246094 12.539062 14.234375 12.550781 14.226562 C 12.683594 14.144531 12.96875 13.96875 13.234375 13.820312 C 13.503906 13.667969 13.753906 13.535156 13.824219 13.492188 C 13.683594 13.457031 13.546875 13.398438 13.429688 13.3125 C 13.347656 13.253906 13.257812 13.171875 13.195312 13.097656 C 13.109375 12.996094 13.042969 12.878906 12.996094 12.753906 C 12.960938 12.832031 12.871094 13.109375 12.765625 13.40625 C 12.664062 13.695312 12.535156 14.011719 12.476562 14.160156 C 12.472656 14.171875 12.460938 14.195312 12.453125 14.214844 C 12.441406 14.261719 12.457031 14.277344 12.5 14.257812 " fill-opacity="1" fill-rule="evenodd"/><g clip-path="url(#id2)"><path fill="rgb(100%, 100%, 100%)" d="M 18.785156 16.207031 C 18.785156 16.207031 18.78125 16.207031 18.78125 16.207031 C 18.773438 16.207031 18.761719 16.210938 18.753906 16.210938 C 18.671875 16.21875 18.570312 16.238281 18.457031 16.273438 C 18.332031 16.308594 18.195312 16.359375 18.054688 16.417969 C 17.894531 16.484375 17.730469 16.558594 17.578125 16.632812 C 17.414062 16.714844 17.265625 16.792969 17.15625 16.859375 C 17.058594 16.917969 16.96875 16.980469 16.882812 17.042969 C 16.796875 17.109375 16.710938 17.179688 16.625 17.25 C 16.542969 17.324219 16.460938 17.398438 16.378906 17.480469 C 16.296875 17.5625 16.214844 17.648438 16.125 17.742188 C 16.082031 17.789062 16.046875 17.828125 16.019531 17.867188 C 15.992188 17.902344 15.972656 17.933594 15.957031 17.960938 C 15.941406 17.988281 15.933594 18.011719 15.929688 18.027344 C 15.929688 18.039062 15.929688 18.050781 15.929688 18.058594 Z M 19.246094 14.117188 C 19.246094 14.117188 19.242188 14.117188 19.242188 14.117188 C 19.234375 14.121094 19.222656 14.125 19.214844 14.128906 C 19.136719 14.160156 19.046875 14.210938 18.949219 14.277344 C 18.84375 14.351562 18.726562 14.441406 18.605469 14.535156 C 18.472656 14.648438 18.335938 14.769531 18.210938 14.886719 C 18.078125 15.015625 17.960938 15.136719 17.875 15.230469 C 17.796875 15.316406 17.730469 15.402344 17.664062 15.492188 C 17.597656 15.578125 17.539062 15.671875 17.480469 15.765625 C 17.417969 15.859375 17.363281 15.957031 17.308594 16.0625 C 17.253906 16.164062 17.195312 16.273438 17.140625 16.386719 C 17.113281 16.445312 17.089844 16.492188 17.074219 16.539062 C 17.058594 16.582031 17.046875 16.617188 17.039062 16.648438 C 17.035156 16.679688 17.03125 16.703125 17.035156 16.722656 C 17.035156 16.730469 17.039062 16.742188 17.042969 16.75 Z M 19.207031 11.960938 C 19.203125 11.964844 19.203125 11.964844 19.199219 11.964844 C 19.195312 11.96875 19.1875 11.976562 19.179688 11.980469 C 19.113281 12.035156 19.039062 12.109375 18.964844 12.199219 C 18.878906 12.300781 18.789062 12.417969 18.703125 12.546875 C 18.601562 12.691406 18.5 12.847656 18.414062 12.992188 C 18.316406 13.152344 18.234375 13.300781 18.179688 13.417969 C 18.128906 13.523438 18.085938 13.625 18.042969 13.726562 C 18.003906 13.832031 17.96875 13.9375 17.9375 14.042969 C 17.90625 14.152344 17.878906 14.261719 17.851562 14.375 C 17.824219 14.488281 17.800781 14.609375 17.777344 14.734375 C 17.761719 14.796875 17.757812 14.851562 17.75 14.898438 C 17.746094 14.945312 17.746094 14.984375 17.75 15.015625 C 17.75 15.046875 17.757812 15.070312 17.761719 15.085938 C 17.765625 15.097656 17.773438 15.105469 17.777344 15.113281 Z M 18.421875 9.835938 C 18.421875 9.835938 18.421875 9.835938 18.417969 9.839844 C 18.414062 9.84375 18.410156 9.851562 18.402344 9.863281 C 18.359375 9.933594 18.3125 10.03125 18.269531 10.140625 C 18.222656 10.265625 18.175781 10.40625 18.132812 10.554688 C 18.085938 10.726562 18.039062 10.90625 18.003906 11.078125 C 17.964844 11.261719 17.933594 11.429688 17.917969 11.558594 C 17.90625 11.671875 17.894531 11.785156 17.890625 11.894531 C 17.886719 12.007812 17.886719 12.117188 17.890625 12.230469 C 17.898438 12.34375 17.90625 12.457031 17.917969 12.574219 C 17.929688 12.691406 17.941406 12.8125 17.960938 12.9375 C 17.96875 13 17.980469 13.054688 17.988281 13.101562 C 18 13.144531 18.011719 13.183594 18.023438 13.214844 C 18.035156 13.238281 18.046875 13.257812 18.058594 13.273438 C 18.066406 13.28125 18.074219 13.289062 18.082031 13.292969 Z M 17.035156 7.996094 L 17.03125 8 C 17.03125 8.007812 17.027344 8.019531 17.027344 8.027344 C 17.007812 8.109375 17 8.210938 16.996094 8.324219 C 16.992188 8.457031 16.996094 8.601562 17.003906 8.75 C 17.015625 8.921875 17.035156 9.101562 17.054688 9.265625 C 17.078125 9.445312 17.105469 9.609375 17.132812 9.734375 C 17.15625 9.84375 17.183594 9.945312 17.21875 10.050781 C 17.25 10.152344 17.285156 10.253906 17.324219 10.351562 C 17.367188 10.453125 17.410156 10.554688 17.457031 10.65625 C 17.507812 10.757812 17.558594 10.863281 17.617188 10.972656 C 17.644531 11.027344 17.671875 11.074219 17.695312 11.109375 C 17.71875 11.148438 17.742188 11.175781 17.761719 11.199219 C 17.78125 11.21875 17.796875 11.234375 17.8125 11.242188 C 17.824219 11.246094 17.832031 11.25 17.839844 11.253906 Z M 15 6.847656 C 15 6.855469 15 6.863281 15.003906 6.871094 C 15.019531 6.945312 15.050781 7.035156 15.09375 7.132812 C 15.140625 7.242188 15.203125 7.359375 15.269531 7.480469 C 15.34375 7.621094 15.429688 7.761719 15.511719 7.890625 C 15.601562 8.03125 15.6875 8.15625 15.761719 8.246094 C 15.824219 8.328125 15.886719 8.402344 15.953125 8.476562 C 16.019531 8.546875 16.089844 8.613281 16.160156 8.683594 C 16.234375 8.75 16.3125 8.8125 16.390625 8.878906 C 16.472656 8.945312 16.554688 9.011719 16.644531 9.078125 C 16.691406 9.113281 16.730469 9.136719 16.765625 9.160156 C 16.800781 9.179688 16.832031 9.195312 16.855469 9.207031 C 16.878906 9.214844 16.898438 9.21875 16.917969 9.21875 C 16.925781 9.21875 16.933594 9.21875 16.9375 9.21875 Z M 12.835938 6.242188 C 12.835938 6.242188 12.839844 6.246094 12.839844 6.25 C 12.878906 6.304688 12.933594 6.367188 13 6.429688 C 13.074219 6.503906 13.160156 6.578125 13.253906 6.65625 C 13.359375 6.742188 13.476562 6.828125 13.582031 6.902344 C 13.703125 6.984375 13.8125 7.058594 13.898438 7.109375 C 13.976562 7.152344 14.050781 7.191406 14.128906 7.226562 C 14.207031 7.261719 14.285156 7.292969 14.367188 7.324219 C 14.445312 7.351562 14.527344 7.378906 14.617188 7.402344 C 14.703125 7.429688 14.792969 7.453125 14.886719 7.476562 C 14.933594 7.488281 14.972656 7.496094 15.007812 7.503906 C 15.042969 7.507812 15.074219 7.507812 15.097656 7.507812 C 15.117188 7.507812 15.136719 7.503906 15.148438 7.5 C 15.15625 7.496094 15.160156 7.496094 15.164062 7.492188 Z M 10.632812 6.242188 L 8.304688 7.492188 C 8.308594 7.496094 8.3125 7.496094 8.316406 7.5 C 8.332031 7.503906 8.347656 7.507812 8.371094 7.507812 C 8.394531 7.507812 8.421875 7.507812 8.457031 7.503906 C 8.492188 7.496094 8.535156 7.488281 8.582031 7.476562 C 8.675781 7.453125 8.765625 7.429688 8.851562 7.402344 C 8.9375 7.378906 9.023438 7.351562 9.101562 7.324219 C 9.183594 7.292969 9.261719 7.261719 9.339844 7.226562 C 9.414062 7.191406 9.492188 7.152344 9.566406 7.109375 C 9.65625 7.058594 9.765625 6.984375 9.882812 6.902344 C 9.992188 6.828125 10.105469 6.742188 10.214844 6.65625 C 10.308594 6.578125 10.394531 6.503906 10.46875 6.429688 C 10.535156 6.367188 10.589844 6.304688 10.625 6.25 C 10.628906 6.246094 10.632812 6.242188 10.632812 6.242188 Z M 10.613281 6.199219 C 10.609375 6.199219 10.605469 6.199219 10.601562 6.199219 C 10.535156 6.199219 10.457031 6.210938 10.367188 6.226562 C 10.265625 6.25 10.15625 6.277344 10.042969 6.3125 C 9.914062 6.355469 9.78125 6.402344 9.65625 6.449219 C 9.523438 6.503906 9.402344 6.554688 9.3125 6.601562 C 9.234375 6.640625 9.160156 6.679688 9.085938 6.726562 C 9.015625 6.769531 8.945312 6.816406 8.875 6.871094 C 8.804688 6.921875 8.738281 6.976562 8.667969 7.035156 C 8.597656 7.089844 8.527344 7.15625 8.453125 7.21875 C 8.417969 7.253906 8.386719 7.28125 8.363281 7.308594 C 8.339844 7.335938 8.320312 7.359375 8.308594 7.382812 C 8.296875 7.398438 8.289062 7.414062 8.285156 7.429688 C 8.28125 7.433594 8.28125 7.441406 8.28125 7.445312 Z M 12.855469 6.199219 L 15.1875 7.445312 C 15.1875 7.441406 15.183594 7.433594 15.183594 7.429688 C 15.179688 7.414062 15.171875 7.398438 15.160156 7.382812 C 15.148438 7.359375 15.128906 7.335938 15.105469 7.308594 C 15.082031 7.28125 15.050781 7.253906 15.015625 7.21875 C 14.941406 7.15625 14.871094 7.089844 14.800781 7.035156 C 14.730469 6.976562 14.664062 6.921875 14.59375 6.871094 C 14.523438 6.816406 14.453125 6.769531 14.378906 6.726562 C 14.308594 6.679688 14.234375 6.640625 14.15625 6.601562 C 14.066406 6.554688 13.945312 6.503906 13.8125 6.449219 C 13.6875 6.402344 13.554688 6.355469 13.425781 6.3125 C 13.3125 6.277344 13.199219 6.25 13.101562 6.226562 C 13.011719 6.210938 12.929688 6.199219 12.867188 6.199219 C 12.863281 6.199219 12.859375 6.199219 12.855469 6.199219 Z M 15.035156 6.816406 L 16.980469 9.183594 C 16.980469 9.175781 16.984375 9.167969 16.984375 9.160156 C 16.988281 9.144531 16.984375 9.121094 16.980469 9.097656 C 16.976562 9.070312 16.964844 9.035156 16.953125 8.996094 C 16.9375 8.957031 16.917969 8.914062 16.894531 8.863281 C 16.84375 8.757812 16.796875 8.660156 16.746094 8.570312 C 16.699219 8.476562 16.648438 8.386719 16.59375 8.304688 C 16.542969 8.21875 16.488281 8.136719 16.429688 8.054688 C 16.375 7.976562 16.3125 7.898438 16.246094 7.824219 C 16.167969 7.734375 16.066406 7.625 15.945312 7.511719 C 15.835938 7.40625 15.714844 7.296875 15.59375 7.195312 C 15.492188 7.105469 15.386719 7.027344 15.289062 6.960938 C 15.203125 6.898438 15.125 6.851562 15.054688 6.824219 C 15.046875 6.820312 15.039062 6.816406 15.035156 6.816406 Z M 17.082031 7.984375 L 17.890625 11.238281 C 17.898438 11.234375 17.902344 11.226562 17.910156 11.21875 C 17.917969 11.203125 17.929688 11.179688 17.933594 11.152344 C 17.941406 11.125 17.949219 11.085938 17.953125 11.042969 C 17.957031 10.996094 17.957031 10.941406 17.957031 10.882812 C 17.957031 10.757812 17.953125 10.640625 17.949219 10.527344 C 17.941406 10.410156 17.933594 10.300781 17.921875 10.195312 C 17.910156 10.085938 17.894531 9.980469 17.875 9.875 C 17.855469 9.769531 17.832031 9.664062 17.804688 9.558594 C 17.769531 9.433594 17.714844 9.277344 17.652344 9.109375 C 17.59375 8.953125 17.527344 8.789062 17.457031 8.628906 C 17.394531 8.496094 17.332031 8.363281 17.265625 8.253906 C 17.210938 8.152344 17.152344 8.070312 17.101562 8.007812 C 17.09375 8 17.089844 7.992188 17.082031 7.988281 Z M 18.472656 9.839844 L 18.136719 13.296875 C 18.144531 13.296875 18.152344 13.289062 18.164062 13.285156 C 18.175781 13.273438 18.191406 13.253906 18.210938 13.230469 C 18.226562 13.203125 18.246094 13.171875 18.265625 13.128906 C 18.285156 13.085938 18.304688 13.035156 18.324219 12.976562 C 18.367188 12.855469 18.402344 12.738281 18.4375 12.625 C 18.472656 12.511719 18.503906 12.402344 18.527344 12.292969 C 18.554688 12.183594 18.574219 12.078125 18.59375 11.96875 C 18.609375 11.859375 18.621094 11.746094 18.632812 11.632812 C 18.640625 11.5 18.644531 11.328125 18.640625 11.140625 C 18.636719 10.96875 18.628906 10.785156 18.617188 10.605469 C 18.601562 10.449219 18.585938 10.300781 18.5625 10.167969 C 18.539062 10.050781 18.515625 9.949219 18.484375 9.867188 C 18.480469 9.859375 18.476562 9.851562 18.472656 9.84375 C 18.472656 9.839844 18.472656 9.839844 18.472656 9.839844 Z M 19.25 11.980469 L 17.828125 15.136719 C 17.835938 15.136719 17.847656 15.132812 17.855469 15.128906 C 17.875 15.125 17.894531 15.113281 17.917969 15.097656 C 17.941406 15.078125 17.972656 15.050781 18.003906 15.019531 C 18.035156 14.984375 18.070312 14.945312 18.109375 14.894531 C 18.1875 14.792969 18.257812 14.699219 18.328125 14.601562 C 18.394531 14.507812 18.457031 14.414062 18.519531 14.320312 C 18.578125 14.226562 18.632812 14.132812 18.683594 14.035156 C 18.734375 13.9375 18.78125 13.835938 18.828125 13.730469 C 18.878906 13.609375 18.9375 13.449219 18.992188 13.269531 C 19.046875 13.105469 19.097656 12.929688 19.140625 12.753906 C 19.175781 12.605469 19.207031 12.457031 19.226562 12.324219 C 19.246094 12.207031 19.253906 12.101562 19.253906 12.015625 C 19.25 12.007812 19.25 11.996094 19.25 11.988281 C 19.25 11.984375 19.25 11.984375 19.25 11.980469 Z M 19.285156 14.148438 L 17.085938 16.785156 C 17.09375 16.789062 17.101562 16.789062 17.113281 16.789062 C 17.132812 16.789062 17.152344 16.785156 17.179688 16.773438 C 17.210938 16.761719 17.246094 16.746094 17.285156 16.722656 C 17.324219 16.699219 17.367188 16.667969 17.417969 16.632812 C 17.519531 16.558594 17.613281 16.484375 17.707031 16.414062 C 17.796875 16.339844 17.882812 16.269531 17.964844 16.195312 C 18.046875 16.121094 18.125 16.042969 18.199219 15.964844 C 18.273438 15.886719 18.347656 15.800781 18.414062 15.710938 C 18.496094 15.609375 18.59375 15.472656 18.695312 15.316406 C 18.792969 15.171875 18.886719 15.015625 18.972656 14.863281 C 19.050781 14.726562 19.117188 14.59375 19.171875 14.472656 C 19.222656 14.363281 19.257812 14.265625 19.277344 14.179688 C 19.277344 14.171875 19.28125 14.164062 19.28125 14.152344 C 19.28125 14.152344 19.28125 14.148438 19.285156 14.148438 Z M 18.8125 16.25 L 15.960938 18.105469 C 15.96875 18.109375 15.976562 18.113281 15.988281 18.117188 C 16.003906 18.125 16.027344 18.125 16.054688 18.125 C 16.085938 18.121094 16.125 18.117188 16.167969 18.105469 C 16.214844 18.097656 16.265625 18.082031 16.324219 18.0625 C 16.441406 18.019531 16.550781 17.980469 16.660156 17.9375 C 16.765625 17.894531 16.871094 17.851562 16.96875 17.808594 C 17.066406 17.761719 17.164062 17.710938 17.257812 17.660156 C 17.351562 17.605469 17.445312 17.546875 17.539062 17.484375 C 17.644531 17.410156 17.777344 17.308594 17.917969 17.191406 C 18.050781 17.082031 18.1875 16.960938 18.3125 16.839844 C 18.425781 16.734375 18.527344 16.625 18.613281 16.527344 C 18.691406 16.4375 18.753906 16.351562 18.796875 16.28125 C 18.800781 16.269531 18.804688 16.261719 18.808594 16.253906 C 18.8125 16.253906 18.8125 16.25 18.8125 16.25 Z M 8.46875 6.847656 L 6.527344 9.21875 C 6.535156 9.21875 6.542969 9.21875 6.550781 9.21875 C 6.566406 9.21875 6.585938 9.214844 6.609375 9.207031 C 6.636719 9.195312 6.667969 9.179688 6.703125 9.160156 C 6.738281 9.136719 6.777344 9.113281 6.820312 9.078125 C 6.910156 9.011719 6.996094 8.945312 7.078125 8.878906 C 7.15625 8.8125 7.234375 8.75 7.304688 8.683594 C 7.378906 8.613281 7.449219 8.546875 7.515625 8.476562 C 7.582031 8.402344 7.644531 8.328125 7.707031 8.246094 C 7.777344 8.15625 7.867188 8.03125 7.957031 7.890625 C 8.039062 7.761719 8.125 7.621094 8.199219 7.480469 C 8.265625 7.359375 8.328125 7.242188 8.375 7.132812 C 8.414062 7.035156 8.449219 6.945312 8.464844 6.871094 C 8.464844 6.863281 8.46875 6.855469 8.46875 6.847656 Z M 8.433594 6.816406 C 8.425781 6.816406 8.421875 6.820312 8.414062 6.824219 C 8.34375 6.851562 8.265625 6.898438 8.179688 6.960938 C 8.082031 7.027344 7.976562 7.105469 7.871094 7.195312 C 7.753906 7.296875 7.628906 7.40625 7.523438 7.511719 C 7.402344 7.625 7.296875 7.734375 7.222656 7.824219 C 7.15625 7.898438 7.09375 7.976562 7.035156 8.054688 C 6.976562 8.136719 6.925781 8.21875 6.871094 8.304688 C 6.820312 8.386719 6.769531 8.476562 6.722656 8.570312 C 6.671875 8.660156 6.625 8.757812 6.574219 8.863281 C 6.550781 8.914062 6.53125 8.957031 6.515625 8.996094 C 6.5 9.035156 6.492188 9.070312 6.488281 9.097656 C 6.484375 9.121094 6.480469 9.144531 6.484375 9.160156 C 6.484375 9.167969 6.488281 9.175781 6.488281 9.183594 Z M 6.433594 7.996094 L 5.628906 11.253906 C 5.636719 11.25 5.644531 11.246094 5.652344 11.242188 C 5.667969 11.234375 5.6875 11.21875 5.707031 11.199219 C 5.726562 11.175781 5.75 11.148438 5.773438 11.109375 C 5.796875 11.074219 5.824219 11.027344 5.851562 10.972656 C 5.910156 10.863281 5.960938 10.757812 6.007812 10.65625 C 6.058594 10.554688 6.101562 10.453125 6.140625 10.351562 C 6.183594 10.253906 6.21875 10.152344 6.25 10.050781 C 6.28125 9.945312 6.308594 9.84375 6.332031 9.734375 C 6.359375 9.609375 6.390625 9.445312 6.414062 9.265625 C 6.433594 9.101562 6.453125 8.921875 6.464844 8.75 C 6.472656 8.601562 6.476562 8.457031 6.472656 8.324219 C 6.46875 8.210938 6.460938 8.109375 6.441406 8.027344 C 6.441406 8.019531 6.4375 8.007812 6.433594 8 Z M 6.386719 7.984375 L 6.386719 7.988281 C 6.378906 7.992188 6.375 8 6.367188 8.007812 C 6.3125 8.070312 6.257812 8.152344 6.199219 8.253906 C 6.136719 8.363281 6.074219 8.496094 6.011719 8.628906 C 5.941406 8.789062 5.871094 8.953125 5.8125 9.109375 C 5.75 9.277344 5.699219 9.433594 5.664062 9.558594 C 5.636719 9.664062 5.609375 9.769531 5.589844 9.875 C 5.570312 9.980469 5.558594 10.085938 5.546875 10.195312 C 5.53125 10.300781 5.527344 10.410156 5.519531 10.527344 C 5.515625 10.640625 5.511719 10.757812 5.511719 10.882812 C 5.507812 10.941406 5.511719 10.996094 5.515625 11.042969 C 5.519531 11.085938 5.523438 11.125 5.53125 11.152344 C 5.539062 11.179688 5.546875 11.203125 5.558594 11.21875 C 5.5625 11.226562 5.570312 11.234375 5.574219 11.238281 Z M 5.046875 9.835938 L 5.386719 13.292969 C 5.394531 13.289062 5.402344 13.28125 5.40625 13.273438 C 5.421875 13.257812 5.433594 13.238281 5.445312 13.214844 C 5.457031 13.183594 5.46875 13.144531 5.480469 13.101562 C 5.488281 13.054688 5.5 13 5.507812 12.9375 C 5.523438 12.8125 5.539062 12.691406 5.550781 12.574219 C 5.5625 12.457031 5.570312 12.34375 5.574219 12.230469 C 5.582031 12.117188 5.582031 12.007812 5.574219 11.894531 C 5.570312 11.785156 5.5625 11.671875 5.546875 11.558594 C 5.53125 11.429688 5.503906 11.261719 5.464844 11.078125 C 5.425781 10.90625 5.382812 10.726562 5.332031 10.554688 C 5.292969 10.40625 5.246094 10.265625 5.195312 10.140625 C 5.152344 10.03125 5.109375 9.933594 5.0625 9.863281 C 5.058594 9.851562 5.054688 9.84375 5.046875 9.839844 C 5.046875 9.835938 5.046875 9.835938 5.046875 9.835938 Z M 4.996094 9.839844 C 4.996094 9.839844 4.996094 9.839844 4.996094 9.84375 C 4.992188 9.851562 4.988281 9.859375 4.984375 9.867188 C 4.953125 9.949219 4.925781 10.050781 4.90625 10.167969 C 4.882812 10.300781 4.867188 10.449219 4.851562 10.605469 C 4.835938 10.785156 4.828125 10.96875 4.828125 11.140625 C 4.824219 11.328125 4.828125 11.5 4.835938 11.632812 C 4.84375 11.746094 4.855469 11.859375 4.875 11.96875 C 4.890625 12.078125 4.914062 12.183594 4.941406 12.292969 C 4.964844 12.402344 4.996094 12.511719 5.03125 12.625 C 5.0625 12.738281 5.101562 12.855469 5.144531 12.976562 C 5.164062 13.035156 5.183594 13.085938 5.203125 13.128906 C 5.222656 13.171875 5.242188 13.203125 5.257812 13.230469 C 5.277344 13.253906 5.289062 13.273438 5.304688 13.285156 C 5.3125 13.289062 5.324219 13.296875 5.332031 13.296875 Z M 4.261719 11.960938 L 5.691406 15.113281 C 5.695312 15.105469 5.699219 15.097656 5.707031 15.085938 C 5.710938 15.070312 5.71875 15.046875 5.71875 15.015625 C 5.722656 14.984375 5.722656 14.945312 5.714844 14.898438 C 5.710938 14.851562 5.703125 14.796875 5.691406 14.734375 C 5.667969 14.609375 5.644531 14.488281 5.617188 14.375 C 5.589844 14.261719 5.5625 14.152344 5.53125 14.042969 C 5.496094 13.9375 5.460938 13.832031 5.421875 13.726562 C 5.382812 13.625 5.339844 13.523438 5.289062 13.417969 C 5.230469 13.300781 5.148438 13.152344 5.054688 12.992188 C 4.96875 12.847656 4.867188 12.691406 4.765625 12.546875 C 4.679688 12.417969 4.589844 12.300781 4.503906 12.199219 C 4.425781 12.109375 4.355469 12.035156 4.289062 11.980469 C 4.28125 11.976562 4.273438 11.96875 4.265625 11.964844 C 4.265625 11.964844 4.265625 11.964844 4.261719 11.960938 Z M 4.21875 11.980469 C 4.21875 11.984375 4.21875 11.984375 4.21875 11.988281 C 4.214844 11.996094 4.214844 12.007812 4.214844 12.015625 C 4.210938 12.101562 4.222656 12.207031 4.238281 12.324219 C 4.257812 12.457031 4.289062 12.605469 4.328125 12.753906 C 4.371094 12.929688 4.421875 13.105469 4.472656 13.269531 C 4.53125 13.449219 4.589844 13.609375 4.640625 13.730469 C 4.683594 13.835938 4.730469 13.9375 4.785156 14.035156 C 4.835938 14.132812 4.890625 14.226562 4.949219 14.320312 C 5.007812 14.414062 5.074219 14.507812 5.140625 14.601562 C 5.207031 14.699219 5.28125 14.792969 5.359375 14.894531 C 5.398438 14.945312 5.433594 14.984375 5.464844 15.019531 C 5.496094 15.050781 5.527344 15.078125 5.550781 15.097656 C 5.574219 15.113281 5.59375 15.125 5.613281 15.128906 C 5.621094 15.132812 5.632812 15.136719 5.640625 15.136719 Z M 4.222656 14.117188 L 6.425781 16.75 C 6.429688 16.742188 6.429688 16.730469 6.433594 16.722656 C 6.433594 16.703125 6.433594 16.679688 6.429688 16.648438 C 6.421875 16.617188 6.410156 16.582031 6.394531 16.539062 C 6.378906 16.492188 6.355469 16.445312 6.328125 16.386719 C 6.269531 16.273438 6.214844 16.164062 6.160156 16.0625 C 6.105469 15.957031 6.046875 15.859375 5.988281 15.765625 C 5.929688 15.671875 5.867188 15.578125 5.804688 15.492188 C 5.738281 15.402344 5.667969 15.316406 5.59375 15.230469 C 5.507812 15.136719 5.390625 15.015625 5.253906 14.886719 C 5.132812 14.769531 4.996094 14.648438 4.859375 14.535156 C 4.742188 14.441406 4.625 14.351562 4.515625 14.277344 C 4.421875 14.210938 4.328125 14.160156 4.253906 14.128906 C 4.242188 14.125 4.234375 14.121094 4.226562 14.117188 C 4.226562 14.117188 4.222656 14.117188 4.222656 14.117188 Z M 4.183594 14.148438 C 4.183594 14.148438 4.183594 14.152344 4.1875 14.152344 C 4.1875 14.164062 4.1875 14.171875 4.191406 14.179688 C 4.210938 14.265625 4.246094 14.363281 4.296875 14.472656 C 4.347656 14.59375 4.417969 14.726562 4.492188 14.863281 C 4.582031 15.015625 4.675781 15.171875 4.769531 15.316406 C 4.871094 15.472656 4.972656 15.609375 5.050781 15.710938 C 5.121094 15.800781 5.195312 15.886719 5.269531 15.964844 C 5.34375 16.042969 5.421875 16.121094 5.503906 16.195312 C 5.585938 16.269531 5.671875 16.339844 5.761719 16.414062 C 5.855469 16.484375 5.949219 16.558594 6.050781 16.632812 C 6.101562 16.667969 6.144531 16.699219 6.183594 16.722656 C 6.222656 16.746094 6.257812 16.761719 6.285156 16.773438 C 6.3125 16.785156 6.335938 16.789062 6.355469 16.789062 C 6.367188 16.789062 6.375 16.789062 6.382812 16.785156 Z M 4.683594 16.207031 L 7.539062 18.058594 C 7.539062 18.050781 7.539062 18.039062 7.535156 18.027344 C 7.53125 18.011719 7.523438 17.988281 7.511719 17.960938 C 7.496094 17.933594 7.476562 17.902344 7.449219 17.867188 C 7.417969 17.828125 7.382812 17.789062 7.339844 17.742188 C 7.253906 17.648438 7.171875 17.5625 7.089844 17.480469 C 7.007812 17.398438 6.921875 17.324219 6.839844 17.25 C 6.757812 17.179688 6.671875 17.109375 6.585938 17.042969 C 6.5 16.980469 6.40625 16.917969 6.3125 16.859375 C 6.203125 16.792969 6.054688 16.714844 5.890625 16.632812 C 5.738281 16.558594 5.574219 16.484375 5.414062 16.417969 C 5.273438 16.359375 5.136719 16.308594 5.011719 16.273438 C 4.898438 16.238281 4.796875 16.21875 4.714844 16.210938 C 4.703125 16.210938 4.695312 16.207031 4.6875 16.207031 C 4.6875 16.207031 4.683594 16.207031 4.683594 16.207031 Z M 4.65625 16.25 C 4.65625 16.25 4.65625 16.253906 4.65625 16.253906 C 4.660156 16.261719 4.667969 16.269531 4.671875 16.28125 C 4.714844 16.351562 4.777344 16.4375 4.855469 16.527344 C 4.941406 16.625 5.042969 16.734375 5.152344 16.839844 C 5.28125 16.960938 5.417969 17.082031 5.546875 17.191406 C 5.6875 17.308594 5.824219 17.410156 5.929688 17.484375 C 6.023438 17.546875 6.113281 17.605469 6.210938 17.660156 C 6.304688 17.710938 6.398438 17.761719 6.5 17.808594 C 6.597656 17.851562 6.699219 17.894531 6.808594 17.9375 C 6.917969 17.980469 7.027344 18.019531 7.144531 18.0625 C 7.203125 18.082031 7.253906 18.097656 7.300781 18.105469 C 7.34375 18.117188 7.378906 18.121094 7.410156 18.125 C 7.441406 18.125 7.464844 18.125 7.480469 18.117188 C 7.492188 18.113281 7.5 18.109375 7.507812 18.105469 L 4.65625 16.25 " fill-opacity="1" fill-rule="evenodd"/></g><g clip-path="url(#id3)"><path fill="rgb(100%, 100%, 100%)" d="M 17.167969 19.921875 C 17.136719 20.023438 17.101562 20.121094 17.074219 20.210938 L 16.949219 20.585938 C 16.949219 20.585938 16.75 20.519531 16.386719 20.425781 L 16.226562 20.917969 L 18.613281 21.832031 L 18.082031 20.511719 L 19.355469 20.082031 L 17.371094 19.296875 Z M 6.300781 19.921875 C 6.332031 20.023438 6.367188 20.121094 6.394531 20.210938 L 6.515625 20.585938 C 6.515625 20.585938 6.71875 20.519531 7.082031 20.425781 L 7.242188 20.917969 L 4.855469 21.832031 L 5.382812 20.511719 L 4.113281 20.082031 L 6.097656 19.296875 Z M 17.34375 18.664062 L 16.796875 20.339844 C 16.796875 20.339844 14.6875 19.625 11.734375 19.597656 C 8.78125 19.625 6.671875 20.339844 6.671875 20.339844 L 6.125 18.664062 C 8.0625 17.992188 10.007812 17.777344 11.734375 17.78125 C 13.460938 17.777344 15.40625 17.992188 17.34375 18.664062 " fill-opacity="1" fill-rule="evenodd"/></g><g clip-path="url(#id4)"><path fill="rgb(100%, 100%, 100%)" d="M 11.734375 19.777344 C 11.738281 19.777344 11.742188 19.777344 11.742188 19.777344 C 11.890625 19.777344 12.007812 19.898438 12.007812 20.050781 C 12.007812 20.199219 11.894531 20.320312 11.75 20.324219 C 11.808594 20.570312 11.980469 20.796875 12.230469 20.929688 C 12.453125 21.042969 12.6875 21.066406 12.898438 21.007812 C 12.933594 21 12.96875 20.984375 13.003906 20.972656 C 13.128906 20.917969 13.238281 20.832031 13.316406 20.71875 C 13.195312 20.691406 13.105469 20.582031 13.105469 20.449219 C 13.105469 20.296875 13.222656 20.175781 13.371094 20.175781 C 13.515625 20.175781 13.636719 20.296875 13.636719 20.449219 C 13.636719 20.601562 13.515625 20.722656 13.371094 20.722656 C 13.363281 20.722656 13.359375 20.722656 13.355469 20.722656 C 13.460938 21.058594 13.800781 21.308594 14.199219 21.308594 C 14.417969 21.308594 14.621094 21.234375 14.773438 21.113281 C 14.714844 21.0625 14.675781 20.988281 14.675781 20.902344 C 14.675781 20.75 14.792969 20.628906 14.941406 20.628906 C 15.085938 20.628906 15.207031 20.75 15.207031 20.902344 C 15.207031 21.050781 15.085938 21.175781 14.941406 21.175781 C 14.90625 21.175781 14.871094 21.167969 14.839844 21.152344 C 14.777344 21.265625 14.722656 21.382812 14.667969 21.503906 C 14.570312 21.734375 14.5 21.96875 14.449219 22.195312 C 14.144531 22.082031 13.074219 21.722656 11.734375 21.710938 C 10.394531 21.722656 9.324219 22.082031 9.015625 22.195312 C 8.96875 21.96875 8.894531 21.734375 8.796875 21.503906 C 8.746094 21.382812 8.6875 21.265625 8.628906 21.152344 C 8.597656 21.167969 8.5625 21.175781 8.527344 21.175781 C 8.378906 21.175781 8.261719 21.050781 8.261719 20.902344 C 8.261719 20.75 8.378906 20.628906 8.527344 20.628906 C 8.671875 20.628906 8.792969 20.75 8.792969 20.902344 C 8.792969 20.988281 8.753906 21.0625 8.695312 21.113281 C 8.847656 21.234375 9.046875 21.308594 9.265625 21.308594 C 9.667969 21.308594 10.007812 21.058594 10.113281 20.722656 C 10.109375 20.722656 10.101562 20.722656 10.097656 20.722656 C 9.953125 20.722656 9.832031 20.601562 9.832031 20.449219 C 9.832031 20.296875 9.953125 20.175781 10.097656 20.175781 C 10.246094 20.175781 10.363281 20.296875 10.363281 20.449219 C 10.363281 20.582031 10.273438 20.691406 10.148438 20.71875 C 10.230469 20.832031 10.339844 20.917969 10.464844 20.972656 C 10.5 20.984375 10.535156 21 10.570312 21.007812 C 10.777344 21.066406 11.015625 21.042969 11.234375 20.929688 C 11.488281 20.796875 11.65625 20.570312 11.71875 20.324219 C 11.574219 20.320312 11.460938 20.199219 11.460938 20.050781 C 11.460938 19.898438 11.578125 19.777344 11.722656 19.777344 C 11.726562 19.777344 11.730469 19.777344 11.734375 19.777344 Z M 13.980469 22.644531 C 14.054688 22.667969 14.128906 22.691406 14.199219 22.714844 C 14.191406 22.691406 14.183594 22.660156 14.183594 22.632812 C 14.183594 22.554688 14.21875 22.488281 14.269531 22.445312 C 14.214844 22.425781 14.144531 22.398438 14.058594 22.375 C 14.066406 22.398438 14.070312 22.425781 14.070312 22.453125 C 14.070312 22.53125 14.035156 22.601562 13.980469 22.644531 Z M 13.386719 22.492188 C 13.46875 22.507812 13.542969 22.527344 13.617188 22.546875 C 13.605469 22.515625 13.597656 22.488281 13.597656 22.453125 C 13.597656 22.378906 13.632812 22.3125 13.683594 22.265625 C 13.613281 22.25 13.542969 22.230469 13.464844 22.214844 C 13.476562 22.242188 13.480469 22.269531 13.480469 22.296875 C 13.480469 22.375 13.441406 22.445312 13.386719 22.492188 Z M 12.824219 22.386719 C 12.898438 22.394531 12.972656 22.410156 13.042969 22.421875 C 13.019531 22.386719 13.007812 22.34375 13.007812 22.296875 C 13.007812 22.234375 13.03125 22.175781 13.070312 22.132812 C 12.996094 22.121094 12.917969 22.109375 12.839844 22.09375 C 12.863281 22.132812 12.878906 22.179688 12.878906 22.230469 C 12.878906 22.289062 12.859375 22.34375 12.824219 22.386719 Z M 12.230469 22.3125 C 12.296875 22.320312 12.363281 22.324219 12.429688 22.332031 C 12.414062 22.300781 12.40625 22.265625 12.40625 22.230469 C 12.40625 22.160156 12.4375 22.09375 12.484375 22.050781 C 12.398438 22.042969 12.3125 22.035156 12.222656 22.027344 C 12.253906 22.066406 12.273438 22.117188 12.273438 22.175781 C 12.273438 22.226562 12.257812 22.273438 12.230469 22.3125 Z M 11.625 22.289062 C 11.660156 22.289062 11.699219 22.289062 11.734375 22.285156 C 11.765625 22.289062 11.796875 22.289062 11.828125 22.289062 C 11.8125 22.253906 11.800781 22.214844 11.800781 22.175781 C 11.800781 22.109375 11.824219 22.050781 11.863281 22.007812 C 11.820312 22.007812 11.777344 22.007812 11.734375 22.007812 C 11.691406 22.007812 11.648438 22.007812 11.605469 22.007812 C 11.640625 22.050781 11.660156 22.105469 11.660156 22.164062 C 11.660156 22.210938 11.648438 22.253906 11.625 22.289062 Z M 11.023438 22.335938 C 11.09375 22.328125 11.167969 22.320312 11.238281 22.3125 C 11.207031 22.273438 11.1875 22.21875 11.1875 22.164062 C 11.1875 22.113281 11.203125 22.066406 11.230469 22.027344 C 11.152344 22.035156 11.074219 22.039062 11 22.046875 C 11.039062 22.089844 11.058594 22.148438 11.058594 22.207031 C 11.058594 22.253906 11.046875 22.296875 11.023438 22.335938 Z M 10.425781 22.421875 C 10.503906 22.40625 10.578125 22.394531 10.660156 22.382812 C 10.613281 22.339844 10.585938 22.277344 10.585938 22.207031 C 10.585938 22.167969 10.597656 22.132812 10.613281 22.097656 C 10.535156 22.109375 10.460938 22.121094 10.386719 22.136719 C 10.429688 22.179688 10.457031 22.238281 10.457031 22.304688 C 10.457031 22.347656 10.445312 22.386719 10.425781 22.421875 Z M 9.863281 22.542969 C 9.925781 22.527344 9.996094 22.511719 10.070312 22.492188 C 10.019531 22.449219 9.984375 22.382812 9.984375 22.304688 C 9.984375 22.273438 9.992188 22.242188 10 22.214844 C 9.921875 22.230469 9.851562 22.25 9.777344 22.269531 C 9.835938 22.3125 9.875 22.382812 9.875 22.464844 C 9.875 22.492188 9.871094 22.519531 9.863281 22.542969 Z M 13.984375 22.300781 C 13.945312 22.261719 13.890625 22.238281 13.835938 22.238281 C 13.777344 22.238281 13.722656 22.261719 13.6875 22.300781 C 13.648438 22.339844 13.625 22.394531 13.625 22.453125 C 13.625 22.511719 13.648438 22.566406 13.6875 22.605469 C 13.722656 22.644531 13.777344 22.671875 13.835938 22.671875 C 13.890625 22.671875 13.945312 22.644531 13.984375 22.605469 C 14.019531 22.566406 14.042969 22.511719 14.042969 22.453125 C 14.042969 22.394531 14.019531 22.339844 13.984375 22.300781 Z M 13.394531 22.144531 C 13.355469 22.105469 13.300781 22.082031 13.246094 22.082031 C 13.1875 22.082031 13.132812 22.105469 13.097656 22.144531 C 13.058594 22.183594 13.035156 22.238281 13.035156 22.296875 C 13.035156 22.355469 13.058594 22.410156 13.097656 22.449219 C 13.132812 22.488281 13.1875 22.515625 13.246094 22.515625 C 13.300781 22.515625 13.355469 22.488281 13.394531 22.449219 C 13.429688 22.410156 13.453125 22.355469 13.453125 22.296875 C 13.453125 22.238281 13.429688 22.183594 13.394531 22.144531 Z M 12.792969 22.078125 C 12.753906 22.039062 12.703125 22.015625 12.644531 22.015625 C 12.585938 22.015625 12.53125 22.039062 12.496094 22.078125 C 12.457031 22.117188 12.433594 22.171875 12.433594 22.230469 C 12.433594 22.289062 12.457031 22.34375 12.496094 22.382812 C 12.53125 22.421875 12.585938 22.445312 12.644531 22.445312 C 12.703125 22.445312 12.753906 22.421875 12.792969 22.382812 C 12.832031 22.34375 12.855469 22.289062 12.855469 22.230469 C 12.855469 22.171875 12.832031 22.117188 12.792969 22.078125 Z M 12.183594 22.019531 C 12.148438 21.980469 12.09375 21.957031 12.035156 21.957031 C 11.980469 21.957031 11.925781 21.980469 11.886719 22.019531 L 11.886719 22.023438 C 11.851562 22.0625 11.828125 22.113281 11.828125 22.175781 C 11.828125 22.234375 11.851562 22.289062 11.886719 22.328125 C 11.925781 22.367188 11.980469 22.390625 12.035156 22.390625 C 12.09375 22.390625 12.148438 22.367188 12.183594 22.328125 C 12.222656 22.289062 12.246094 22.234375 12.246094 22.175781 C 12.246094 22.113281 12.222656 22.0625 12.183594 22.019531 Z M 11.574219 22.011719 C 11.535156 21.972656 11.484375 21.945312 11.425781 21.945312 C 11.367188 21.945312 11.316406 21.972656 11.277344 22.011719 C 11.238281 22.050781 11.214844 22.105469 11.214844 22.164062 C 11.214844 22.222656 11.238281 22.277344 11.277344 22.316406 C 11.316406 22.355469 11.367188 22.378906 11.425781 22.378906 C 11.484375 22.378906 11.535156 22.355469 11.574219 22.316406 C 11.613281 22.277344 11.636719 22.222656 11.636719 22.164062 C 11.636719 22.105469 11.613281 22.050781 11.574219 22.011719 Z M 10.972656 22.054688 C 10.933594 22.015625 10.882812 21.992188 10.824219 21.992188 C 10.765625 21.992188 10.710938 22.015625 10.675781 22.054688 C 10.636719 22.09375 10.613281 22.148438 10.613281 22.207031 C 10.613281 22.269531 10.636719 22.320312 10.675781 22.359375 C 10.710938 22.398438 10.765625 22.425781 10.824219 22.425781 C 10.882812 22.425781 10.933594 22.398438 10.972656 22.359375 C 11.011719 22.320312 11.035156 22.269531 11.035156 22.207031 C 11.035156 22.148438 11.011719 22.09375 10.972656 22.054688 Z M 10.367188 22.152344 C 10.332031 22.113281 10.277344 22.089844 10.21875 22.089844 C 10.160156 22.089844 10.109375 22.113281 10.070312 22.152344 C 10.03125 22.191406 10.007812 22.246094 10.007812 22.304688 C 10.007812 22.367188 10.03125 22.417969 10.070312 22.457031 C 10.109375 22.5 10.160156 22.523438 10.21875 22.523438 C 10.277344 22.523438 10.332031 22.5 10.367188 22.457031 C 10.40625 22.417969 10.429688 22.367188 10.429688 22.304688 C 10.429688 22.246094 10.40625 22.191406 10.367188 22.152344 Z M 9.789062 22.308594 C 9.75 22.269531 9.695312 22.246094 9.640625 22.246094 C 9.582031 22.246094 9.527344 22.269531 9.492188 22.308594 C 9.453125 22.351562 9.429688 22.402344 9.429688 22.464844 C 9.429688 22.523438 9.453125 22.578125 9.492188 22.617188 C 9.527344 22.65625 9.582031 22.679688 9.640625 22.679688 C 9.695312 22.679688 9.75 22.65625 9.789062 22.617188 C 9.824219 22.578125 9.847656 22.523438 9.847656 22.464844 C 9.847656 22.402344 9.824219 22.347656 9.789062 22.308594 Z M 9.21875 22.523438 C 9.179688 22.484375 9.128906 22.460938 9.070312 22.460938 C 9.011719 22.460938 8.960938 22.484375 8.921875 22.523438 C 8.882812 22.5625 8.859375 22.617188 8.859375 22.675781 C 8.859375 22.734375 8.882812 22.789062 8.921875 22.828125 C 8.960938 22.867188 9.011719 22.890625 9.070312 22.890625 C 9.128906 22.890625 9.179688 22.867188 9.21875 22.828125 C 9.257812 22.789062 9.28125 22.734375 9.28125 22.675781 C 9.28125 22.617188 9.257812 22.5625 9.21875 22.523438 Z M 14.570312 22.480469 C 14.53125 22.441406 14.480469 22.414062 14.421875 22.414062 C 14.363281 22.414062 14.308594 22.441406 14.273438 22.480469 C 14.234375 22.519531 14.210938 22.574219 14.210938 22.632812 C 14.210938 22.691406 14.234375 22.746094 14.273438 22.785156 C 14.3125 22.824219 14.363281 22.847656 14.421875 22.847656 C 14.480469 22.847656 14.53125 22.824219 14.570312 22.785156 C 14.605469 22.746094 14.628906 22.691406 14.628906 22.632812 C 14.628906 22.574219 14.605469 22.519531 14.570312 22.480469 Z M 9.304688 22.703125 C 9.363281 22.683594 9.421875 22.664062 9.484375 22.648438 C 9.433594 22.601562 9.402344 22.535156 9.402344 22.464844 C 9.402344 22.429688 9.410156 22.398438 9.421875 22.371094 C 9.316406 22.402344 9.230469 22.433594 9.167969 22.453125 C 9.25 22.492188 9.308594 22.578125 9.308594 22.675781 C 9.308594 22.683594 9.304688 22.695312 9.304688 22.703125 " fill-opacity="1" fill-rule="evenodd"/></g><g fill="rgb(100%, 100%, 100%)" fill-opacity="1"><g transform="translate(23.637237, 18.850178)"><g><path d="M 5.453125 -6.734375 L 2.625 -6.734375 C 2.363281 -6.734375 2.175781 -6.675781 2.0625 -6.5625 C 1.945312 -6.445312 1.890625 -6.257812 1.890625 -6 L 1.890625 -4.265625 L 5.03125 -4.265625 L 5.03125 -3.484375 L 1.890625 -3.484375 L 1.890625 0 L 0.921875 0 L 0.921875 -6.1875 C 0.921875 -6.625 1.050781 -6.957031 1.3125 -7.1875 C 1.582031 -7.425781 1.9375 -7.546875 2.375 -7.546875 C 3.8125 -7.546875 4.851562 -7.519531 5.5 -7.46875 Z M 5.453125 -6.734375 "/></g></g></g><g fill="rgb(100%, 100%, 100%)" fill-opacity="1"><g transform="translate(29.736014, 18.850178)"><g><path d="M 1.140625 -7.578125 L 1.578125 -7.578125 C 1.765625 -7.578125 1.859375 -7.484375 1.859375 -7.296875 L 1.859375 -6.671875 C 1.859375 -6.484375 1.765625 -6.390625 1.578125 -6.390625 L 1.140625 -6.390625 C 0.953125 -6.390625 0.859375 -6.484375 0.859375 -6.671875 L 0.859375 -7.296875 C 0.859375 -7.484375 0.953125 -7.578125 1.140625 -7.578125 Z M 1.8125 0 L 0.890625 0 L 0.890625 -5.3125 L 1.8125 -5.3125 Z M 1.8125 0 "/></g></g></g><g fill="rgb(100%, 100%, 100%)" fill-opacity="1"><g transform="translate(32.660018, 18.850178)"><g><path d="M 1.640625 -5.3125 L 1.703125 -4.484375 C 2.566406 -5.128906 3.359375 -5.453125 4.078125 -5.453125 C 5.046875 -5.453125 5.53125 -4.960938 5.53125 -3.984375 L 5.53125 0 L 4.59375 0 L 4.59375 -3.71875 C 4.59375 -4.070312 4.535156 -4.316406 4.421875 -4.453125 C 4.304688 -4.585938 4.109375 -4.65625 3.828125 -4.65625 C 3.535156 -4.65625 3.242188 -4.585938 2.953125 -4.453125 C 2.660156 -4.328125 2.269531 -4.117188 1.78125 -3.828125 L 1.78125 0 L 0.859375 0 L 0.859375 -5.3125 Z M 1.640625 -5.3125 "/></g></g></g><g fill="rgb(100%, 100%, 100%)" fill-opacity="1"><g transform="translate(39.216997, 18.850178)"><g><path d="M 0.890625 -4.515625 L 0.796875 -5.203125 C 1.773438 -5.367188 2.628906 -5.453125 3.359375 -5.453125 C 3.984375 -5.453125 4.441406 -5.320312 4.734375 -5.0625 C 5.035156 -4.800781 5.1875 -4.363281 5.1875 -3.75 L 5.1875 0 L 4.453125 0 L 4.34375 -0.875 C 4.09375 -0.613281 3.773438 -0.382812 3.390625 -0.1875 C 3.003906 0 2.59375 0.09375 2.15625 0.09375 C 1.664062 0.09375 1.273438 -0.03125 0.984375 -0.28125 C 0.703125 -0.539062 0.5625 -0.910156 0.5625 -1.390625 L 0.5625 -1.96875 C 0.5625 -2.382812 0.6875 -2.707031 0.9375 -2.9375 C 1.195312 -3.164062 1.5625 -3.28125 2.03125 -3.28125 L 4.25 -3.28125 L 4.25 -3.75 C 4.25 -4.082031 4.171875 -4.316406 4.015625 -4.453125 C 3.867188 -4.585938 3.585938 -4.65625 3.171875 -4.65625 C 2.640625 -4.65625 1.878906 -4.609375 0.890625 -4.515625 Z M 1.5 -1.828125 L 1.5 -1.5 C 1.5 -1.21875 1.566406 -1.015625 1.703125 -0.890625 C 1.835938 -0.765625 2.050781 -0.703125 2.34375 -0.703125 C 2.613281 -0.691406 2.925781 -0.753906 3.28125 -0.890625 C 3.632812 -1.035156 3.957031 -1.238281 4.25 -1.5 L 4.25 -2.5625 L 2.203125 -2.5625 C 1.953125 -2.5625 1.769531 -2.5 1.65625 -2.375 C 1.550781 -2.25 1.5 -2.066406 1.5 -1.828125 Z M 1.5 -1.828125 "/></g></g></g><g fill="rgb(100%, 100%, 100%)" fill-opacity="1"><g transform="translate(45.424862, 18.850178)"><g><path d="M 1.796875 -7.640625 L 1.796875 -1.46875 C 1.785156 -1.226562 1.84375 -1.046875 1.96875 -0.921875 C 2.09375 -0.804688 2.273438 -0.75 2.515625 -0.75 L 3.03125 -0.75 L 3.140625 -0.046875 C 2.941406 0.046875 2.613281 0.09375 2.15625 0.09375 C 1.757812 0.09375 1.441406 -0.0195312 1.203125 -0.25 C 0.972656 -0.488281 0.859375 -0.820312 0.859375 -1.25 L 0.859375 -7.640625 Z M 1.796875 -7.640625 "/></g></g></g><g fill="rgb(100%, 100%, 100%)" fill-opacity="1"><g transform="translate(48.883454, 18.850178)"><g><path d="M 1.140625 -7.578125 L 1.578125 -7.578125 C 1.765625 -7.578125 1.859375 -7.484375 1.859375 -7.296875 L 1.859375 -6.671875 C 1.859375 -6.484375 1.765625 -6.390625 1.578125 -6.390625 L 1.140625 -6.390625 C 0.953125 -6.390625 0.859375 -6.484375 0.859375 -6.671875 L 0.859375 -7.296875 C 0.859375 -7.484375 0.953125 -7.578125 1.140625 -7.578125 Z M 1.8125 0 L 0.890625 0 L 0.890625 -5.3125 L 1.8125 -5.3125 Z M 1.8125 0 "/></g></g></g><g fill="rgb(100%, 100%, 100%)" fill-opacity="1"><g transform="translate(51.807459, 18.850178)"><g><path d="M 3.28125 -2.15625 L 1.75 -2.5 C 1.3125 -2.601562 1 -2.765625 0.8125 -2.984375 C 0.632812 -3.210938 0.546875 -3.546875 0.546875 -3.984375 C 0.546875 -4.578125 0.695312 -4.972656 1 -5.171875 C 1.3125 -5.367188 1.851562 -5.460938 2.625 -5.453125 C 3.476562 -5.429688 4.222656 -5.375 4.859375 -5.28125 L 4.78125 -4.609375 C 3.675781 -4.640625 3.003906 -4.65625 2.765625 -4.65625 C 2.222656 -4.664062 1.867188 -4.632812 1.703125 -4.5625 C 1.535156 -4.488281 1.453125 -4.296875 1.453125 -3.984375 C 1.453125 -3.734375 1.507812 -3.554688 1.625 -3.453125 C 1.738281 -3.359375 1.941406 -3.28125 2.234375 -3.21875 L 3.78125 -2.875 C 4.21875 -2.757812 4.53125 -2.59375 4.71875 -2.375 C 4.914062 -2.164062 5.015625 -1.84375 5.015625 -1.40625 C 5.015625 -0.789062 4.84375 -0.378906 4.5 -0.171875 C 4.15625 0.0234375 3.566406 0.125 2.734375 0.125 C 1.992188 0.125 1.300781 0.0703125 0.65625 -0.03125 L 0.71875 -0.703125 C 1.34375 -0.671875 1.957031 -0.660156 2.5625 -0.671875 C 3.175781 -0.671875 3.585938 -0.71875 3.796875 -0.8125 C 4.015625 -0.90625 4.125 -1.101562 4.125 -1.40625 C 4.125 -1.644531 4.054688 -1.8125 3.921875 -1.90625 C 3.796875 -2 3.582031 -2.082031 3.28125 -2.15625 Z M 3.28125 -2.15625 "/></g></g></g><g fill="rgb(100%, 100%, 100%)" fill-opacity="1"><g transform="translate(57.56803, 18.850178)"><g><path d="M 2.1875 -4.59375 L 2.1875 -1.46875 C 2.1875 -1.207031 2.238281 -1.019531 2.34375 -0.90625 C 2.457031 -0.800781 2.644531 -0.75 2.90625 -0.75 L 3.71875 -0.75 L 3.828125 -0.046875 C 3.484375 0.046875 3.082031 0.09375 2.625 0.09375 C 2.175781 0.09375 1.832031 -0.0234375 1.59375 -0.265625 C 1.363281 -0.515625 1.25 -0.875 1.25 -1.34375 L 1.25 -4.59375 L 0.296875 -4.59375 L 0.296875 -5.265625 L 1.25 -5.3125 L 1.25 -6.890625 L 2.1875 -6.890625 L 2.1875 -5.3125 L 3.875 -5.3125 L 3.875 -4.59375 Z M 2.1875 -4.59375 "/></g></g></g><g fill="rgb(100%, 100%, 100%)" fill-opacity="1"><g transform="translate(61.94305, 18.850178)"><g><path d="M 4.046875 -2.203125 L 1.578125 -2.203125 C 1.628906 -1.585938 1.773438 -1.175781 2.015625 -0.96875 C 2.265625 -0.757812 2.675781 -0.65625 3.25 -0.65625 C 3.851562 -0.65625 4.46875 -0.695312 5.09375 -0.78125 L 5.203125 -0.15625 C 4.722656 0.03125 4.035156 0.125 3.140625 0.125 C 2.222656 0.125 1.566406 -0.0820312 1.171875 -0.5 C 0.785156 -0.925781 0.59375 -1.648438 0.59375 -2.671875 C 0.59375 -3.703125 0.78125 -4.421875 1.15625 -4.828125 C 1.53125 -5.242188 2.15625 -5.453125 3.03125 -5.453125 C 3.832031 -5.453125 4.410156 -5.304688 4.765625 -5.015625 C 5.128906 -4.734375 5.3125 -4.300781 5.3125 -3.71875 C 5.332031 -2.707031 4.910156 -2.203125 4.046875 -2.203125 Z M 1.5625 -2.921875 L 3.8125 -2.921875 C 4.195312 -2.921875 4.390625 -3.1875 4.390625 -3.71875 C 4.378906 -4.0625 4.273438 -4.300781 4.078125 -4.4375 C 3.890625 -4.582031 3.554688 -4.65625 3.078125 -4.65625 C 2.515625 -4.65625 2.125 -4.535156 1.90625 -4.296875 C 1.6875 -4.054688 1.570312 -3.597656 1.5625 -2.921875 Z M 1.5625 -2.921875 "/></g></g></g></svg>