<svg xmlns="http://www.w3.org/2000/svg" xmlns:xlink="http://www.w3.org/1999/xlink" width="100" zoomAndPan="magnify" viewBox="0 0 75 30.000001" height="40" preserveAspectRatio="xMidYMid meet" version="1.0"><defs><g/><clipPath id="id1"><path d="M 1.210938 0 L 73.789062 0 L 73.789062 29.03125 L 1.210938 29.03125 Z M 1.210938 0 " clip-rule="nonzero"/></clipPath><clipPath id="id2"><path d="M 2.492188 5.804688 L 19.183594 5.804688 L 19.183594 23.226562 L 2.492188 23.226562 Z M 2.492188 5.804688 " clip-rule="nonzero"/></clipPath></defs><g clip-path="url(#id1)"><path fill="rgb(12.939453%, 23.529053%, 33.729553%)" d="M 1.210938 0 L 73.789062 0 L 73.789062 29.03125 L 1.210938 29.03125 Z M 1.210938 0 " fill-opacity="1" fill-rule="nonzero"/><path fill="rgb(100%, 100%, 100%)" d="M 1.210938 0 L 73.789062 0 L 73.789062 29.03125 L 1.210938 29.03125 Z M 1.210938 0 " fill-opacity="1" fill-rule="nonzero"/><path fill="rgb(12.939453%, 23.529053%, 33.729553%)" d="M 1.210938 0 L 73.789062 0 L 73.789062 29.03125 L 1.210938 29.03125 Z M 1.210938 0 " fill-opacity="1" fill-rule="nonzero"/></g><path fill="rgb(100%, 100%, 100%)" d="M 12.980469 12.015625 C 12.980469 10.597656 11.800781 9.421875 10.371094 9.421875 C 8.945312 9.421875 7.761719 10.597656 7.761719 12.015625 C 7.761719 13.4375 8.945312 14.613281 10.371094 14.613281 C 11.800781 14.613281 12.980469 13.4375 12.980469 12.015625 Z M 9.90625 13.21875 C 9.65625 13.355469 9.355469 13.136719 9.410156 12.863281 L 9.464844 12.535156 C 9.492188 12.425781 9.4375 12.316406 9.355469 12.234375 L 9.109375 11.988281 C 8.917969 11.800781 9.027344 11.445312 9.300781 11.417969 L 9.628906 11.363281 C 9.738281 11.335938 9.851562 11.28125 9.878906 11.171875 L 10.042969 10.871094 C 10.179688 10.625 10.535156 10.625 10.644531 10.871094 L 10.8125 11.171875 C 10.867188 11.28125 10.949219 11.335938 11.058594 11.363281 L 11.386719 11.417969 C 11.660156 11.445312 11.773438 11.800781 11.578125 11.988281 L 11.332031 12.234375 C 11.25 12.316406 11.222656 12.425781 11.222656 12.535156 L 11.277344 12.863281 C 11.332031 13.136719 11.03125 13.355469 10.785156 13.21875 L 10.480469 13.054688 C 10.371094 13 10.261719 13 10.152344 13.054688 Z M 9.90625 13.21875 " fill-opacity="1" fill-rule="nonzero"/><g clip-path="url(#id2)"><path fill="rgb(100%, 100%, 100%)" d="M 15.644531 16.195312 C 13.832031 16.195312 12.320312 17.5625 12.128906 19.363281 C 11.167969 18.597656 11.414062 17.535156 11.332031 17.207031 C 12.679688 16.851562 13.722656 15.757812 13.996094 14.339844 C 14.078125 14.367188 14.160156 14.394531 14.269531 14.394531 C 14.65625 14.394531 14.984375 14.09375 14.984375 13.683594 C 14.984375 13.601562 14.957031 13.519531 14.929688 13.4375 C 18.222656 12.617188 17.949219 9.203125 17.949219 9.175781 C 17.949219 8.933594 17.757812 8.742188 17.511719 8.742188 L 14.929688 8.742188 L 14.984375 8.359375 C 15.066406 7.839844 14.65625 7.402344 14.160156 7.402344 L 14.132812 7.402344 C 13.582031 6.9375 12.457031 6.691406 11.25 6.582031 C 11.222656 6.144531 10.867188 5.820312 10.425781 5.820312 C 9.988281 5.820312 9.628906 6.144531 9.601562 6.582031 C 8.339844 6.664062 7.1875 6.9375 6.554688 7.375 L 6.527344 7.375 C 6.0625 7.375 5.703125 7.757812 5.703125 8.195312 C 5.703125 8.304688 5.703125 8.304688 5.785156 8.714844 L 3.207031 8.714844 C 2.957031 8.714844 2.765625 8.90625 2.765625 9.148438 C 2.765625 9.175781 2.492188 12.617188 5.785156 13.410156 C 5.757812 13.492188 5.730469 13.574219 5.730469 13.65625 C 5.730469 14.039062 6.035156 14.367188 6.417969 14.367188 C 6.5 14.367188 6.609375 14.339844 6.691406 14.3125 C 6.96875 15.730469 8.011719 16.824219 9.355469 17.179688 L 9.328125 17.832031 C 9.273438 18.980469 8.285156 19.691406 7.816406 19.691406 C 7.433594 19.691406 7.132812 19.992188 7.132812 20.375 L 7.132812 20.539062 L 6.996094 20.539062 C 6.5 20.539062 6.089844 20.945312 6.089844 21.4375 L 6.089844 22.667969 L 4.90625 22.667969 C 4.769531 22.667969 4.632812 22.777344 4.632812 22.941406 C 4.632812 23.078125 4.769531 23.214844 4.90625 23.214844 C 8.367188 23.214844 12.347656 23.214844 15.589844 23.214844 C 17.566406 23.214844 19.128906 21.601562 19.128906 19.691406 C 19.183594 17.78125 17.59375 16.195312 15.644531 16.195312 Z M 15.644531 16.742188 C 16.300781 16.742188 16.878906 16.960938 17.371094 17.289062 C 17.070312 18.160156 16.550781 18.625 15.644531 18.378906 C 14.683594 18.078125 13.667969 18.214844 12.84375 18.679688 C 13.28125 17.5625 14.351562 16.742188 15.644531 16.742188 Z M 17.097656 9.585938 C 17.097656 11.199219 15.863281 12.507812 14.296875 12.671875 L 14.820312 9.585938 Z M 3.644531 9.585938 L 5.921875 9.585938 L 6.417969 12.671875 C 4.851562 12.507812 3.644531 11.199219 3.644531 9.585938 Z M 7.214844 14.148438 C 6.636719 10.625 6.253906 8.222656 6.253906 8.277344 C 6.226562 8.113281 6.363281 7.949219 6.527344 7.949219 C 7.242188 7.949219 13.199219 7.949219 14.1875 7.949219 C 14.351562 7.949219 14.488281 8.113281 14.460938 8.277344 C 14.40625 8.660156 13.554688 13.792969 13.5 14.148438 C 12.925781 17.671875 7.816406 17.671875 7.214844 14.148438 Z M 6.691406 22.695312 L 6.691406 21.464844 C 6.691406 21.273438 6.855469 21.109375 7.050781 21.109375 C 8.613281 21.109375 9.988281 21.109375 12.402344 21.109375 C 12.679688 21.738281 13.144531 22.3125 13.75 22.695312 Z M 15.644531 22.695312 C 15.148438 22.695312 14.601562 22.558594 14.078125 22.257812 C 15.066406 22.230469 15.753906 21.875 16.109375 21.191406 C 16.136719 21.109375 16.328125 20.484375 16.878906 20.292969 C 17.289062 20.15625 17.8125 20.320312 18.417969 20.730469 C 18.03125 21.875 16.933594 22.695312 15.644531 22.695312 Z M 18.609375 20.15625 C 17.894531 19.71875 17.289062 19.582031 16.742188 19.773438 C 15.972656 20.019531 15.699219 20.78125 15.644531 20.945312 C 15.230469 21.738281 14.214844 21.765625 13.417969 21.65625 C 12.898438 21.054688 12.648438 20.347656 12.707031 19.5 C 13.445312 18.84375 14.515625 18.597656 15.535156 18.925781 C 16.054688 19.089844 16.550781 19.0625 16.933594 18.84375 C 17.316406 18.625 17.621094 18.242188 17.839844 17.726562 C 18.332031 18.242188 18.636719 18.953125 18.636719 19.746094 C 18.636719 19.882812 18.609375 20.019531 18.609375 20.15625 Z M 18.609375 20.15625 " fill-opacity="1" fill-rule="nonzero"/></g><g fill="rgb(100%, 100%, 100%)" fill-opacity="1"><g transform="translate(20.291723, 18.850181)"><g><path d="M 6.46875 -7.53125 L 4.1875 -0.265625 C 4.113281 -0.0859375 3.988281 0 3.8125 0 L 2.84375 0 C 2.644531 0 2.519531 -0.0859375 2.46875 -0.265625 L 0.1875 -7.53125 L 1.171875 -7.53125 L 2.953125 -1.5625 C 3.054688 -1.195312 3.128906 -0.925781 3.171875 -0.75 L 3.46875 -0.75 C 3.539062 -1.039062 3.617188 -1.316406 3.703125 -1.578125 L 5.46875 -7.53125 Z M 6.46875 -7.53125 "/></g></g></g><g fill="rgb(100%, 100%, 100%)" fill-opacity="1"><g transform="translate(27.154182, 18.850181)"><g><path d="M 0.890625 -4.515625 L 0.796875 -5.203125 C 1.773438 -5.367188 2.628906 -5.453125 3.359375 -5.453125 C 3.984375 -5.453125 4.441406 -5.320312 4.734375 -5.0625 C 5.035156 -4.800781 5.1875 -4.363281 5.1875 -3.75 L 5.1875 0 L 4.453125 0 L 4.34375 -0.875 C 4.09375 -0.613281 3.773438 -0.382812 3.390625 -0.1875 C 3.003906 0 2.59375 0.09375 2.15625 0.09375 C 1.664062 0.09375 1.273438 -0.03125 0.984375 -0.28125 C 0.703125 -0.539062 0.5625 -0.910156 0.5625 -1.390625 L 0.5625 -1.96875 C 0.5625 -2.382812 0.6875 -2.707031 0.9375 -2.9375 C 1.195312 -3.164062 1.5625 -3.28125 2.03125 -3.28125 L 4.25 -3.28125 L 4.25 -3.75 C 4.25 -4.082031 4.171875 -4.316406 4.015625 -4.453125 C 3.867188 -4.585938 3.585938 -4.65625 3.171875 -4.65625 C 2.640625 -4.65625 1.878906 -4.609375 0.890625 -4.515625 Z M 1.5 -1.828125 L 1.5 -1.5 C 1.5 -1.21875 1.566406 -1.015625 1.703125 -0.890625 C 1.835938 -0.765625 2.050781 -0.703125 2.34375 -0.703125 C 2.613281 -0.691406 2.925781 -0.753906 3.28125 -0.890625 C 3.632812 -1.035156 3.957031 -1.238281 4.25 -1.5 L 4.25 -2.5625 L 2.203125 -2.5625 C 1.953125 -2.5625 1.769531 -2.5 1.65625 -2.375 C 1.550781 -2.25 1.5 -2.066406 1.5 -1.828125 Z M 1.5 -1.828125 "/></g></g></g><g fill="rgb(100%, 100%, 100%)" fill-opacity="1"><g transform="translate(33.362047, 18.850181)"><g><path d="M 1.140625 -7.578125 L 1.578125 -7.578125 C 1.765625 -7.578125 1.859375 -7.484375 1.859375 -7.296875 L 1.859375 -6.671875 C 1.859375 -6.484375 1.765625 -6.390625 1.578125 -6.390625 L 1.140625 -6.390625 C 0.953125 -6.390625 0.859375 -6.484375 0.859375 -6.671875 L 0.859375 -7.296875 C 0.859375 -7.484375 0.953125 -7.578125 1.140625 -7.578125 Z M 1.8125 0 L 0.890625 0 L 0.890625 -5.3125 L 1.8125 -5.3125 Z M 1.8125 0 "/></g></g></g><g fill="rgb(100%, 100%, 100%)" fill-opacity="1"><g transform="translate(36.28605, 18.850181)"><g><path d="M 1.640625 -5.3125 L 1.703125 -4.484375 C 2.566406 -5.128906 3.359375 -5.453125 4.078125 -5.453125 C 5.046875 -5.453125 5.53125 -4.960938 5.53125 -3.984375 L 5.53125 0 L 4.59375 0 L 4.59375 -3.71875 C 4.59375 -4.070312 4.535156 -4.316406 4.421875 -4.453125 C 4.304688 -4.585938 4.109375 -4.65625 3.828125 -4.65625 C 3.535156 -4.65625 3.242188 -4.585938 2.953125 -4.453125 C 2.660156 -4.328125 2.269531 -4.117188 1.78125 -3.828125 L 1.78125 0 L 0.859375 0 L 0.859375 -5.3125 Z M 1.640625 -5.3125 "/></g></g></g><g fill="rgb(100%, 100%, 100%)" fill-opacity="1"><g transform="translate(42.84303, 18.850181)"><g><path d="M 5.390625 2.203125 L 4.453125 2.203125 L 4.453125 0.375 C 4.453125 -0.0820312 4.484375 -0.445312 4.546875 -0.71875 C 3.847656 -0.144531 3.140625 0.140625 2.421875 0.140625 C 1.804688 0.140625 1.347656 -0.0820312 1.046875 -0.53125 C 0.742188 -0.976562 0.59375 -1.679688 0.59375 -2.640625 C 0.59375 -3.609375 0.769531 -4.316406 1.125 -4.765625 C 1.476562 -5.222656 2.101562 -5.453125 3 -5.453125 C 3.863281 -5.453125 4.660156 -5.328125 5.390625 -5.078125 Z M 4.46875 -1.390625 L 4.46875 -4.484375 C 3.96875 -4.617188 3.472656 -4.675781 2.984375 -4.65625 C 2.441406 -4.644531 2.066406 -4.492188 1.859375 -4.203125 C 1.648438 -3.921875 1.546875 -3.378906 1.546875 -2.578125 C 1.546875 -1.898438 1.628906 -1.410156 1.796875 -1.109375 C 1.960938 -0.816406 2.273438 -0.671875 2.734375 -0.671875 C 3.023438 -0.671875 3.296875 -0.726562 3.546875 -0.84375 C 3.796875 -0.957031 4.101562 -1.140625 4.46875 -1.390625 Z M 4.46875 -1.390625 "/></g></g></g><g fill="rgb(100%, 100%, 100%)" fill-opacity="1"><g transform="translate(49.280002, 18.850181)"><g><path d="M 5.375 -5.3125 L 5.375 0 L 4.625 0 L 4.5625 -0.765625 C 3.757812 -0.160156 2.992188 0.140625 2.265625 0.140625 C 1.296875 0.140625 0.8125 -0.347656 0.8125 -1.328125 L 0.8125 -5.3125 L 1.75 -5.3125 L 1.75 -1.578125 C 1.738281 -1.242188 1.796875 -1.007812 1.921875 -0.875 C 2.054688 -0.738281 2.28125 -0.671875 2.59375 -0.671875 C 2.863281 -0.671875 3.132812 -0.726562 3.40625 -0.84375 C 3.6875 -0.96875 4.03125 -1.164062 4.4375 -1.4375 L 4.4375 -5.3125 Z M 5.375 -5.3125 "/></g></g></g><g fill="rgb(100%, 100%, 100%)" fill-opacity="1"><g transform="translate(55.716975, 18.850181)"><g><path d="M 4.046875 -2.203125 L 1.578125 -2.203125 C 1.628906 -1.585938 1.773438 -1.175781 2.015625 -0.96875 C 2.265625 -0.757812 2.675781 -0.65625 3.25 -0.65625 C 3.851562 -0.65625 4.46875 -0.695312 5.09375 -0.78125 L 5.203125 -0.15625 C 4.722656 0.03125 4.035156 0.125 3.140625 0.125 C 2.222656 0.125 1.566406 -0.0820312 1.171875 -0.5 C 0.785156 -0.925781 0.59375 -1.648438 0.59375 -2.671875 C 0.59375 -3.703125 0.78125 -4.421875 1.15625 -4.828125 C 1.53125 -5.242188 2.15625 -5.453125 3.03125 -5.453125 C 3.832031 -5.453125 4.410156 -5.304688 4.765625 -5.015625 C 5.128906 -4.734375 5.3125 -4.300781 5.3125 -3.71875 C 5.332031 -2.707031 4.910156 -2.203125 4.046875 -2.203125 Z M 1.5625 -2.921875 L 3.8125 -2.921875 C 4.195312 -2.921875 4.390625 -3.1875 4.390625 -3.71875 C 4.378906 -4.0625 4.273438 -4.300781 4.078125 -4.4375 C 3.890625 -4.582031 3.554688 -4.65625 3.078125 -4.65625 C 2.515625 -4.65625 2.125 -4.535156 1.90625 -4.296875 C 1.6875 -4.054688 1.570312 -3.597656 1.5625 -2.921875 Z M 1.5625 -2.921875 "/></g></g></g><g fill="rgb(100%, 100%, 100%)" fill-opacity="1"><g transform="translate(61.793923, 18.850181)"><g><path d="M 5.375 -5.3125 L 5.375 0 L 4.625 0 L 4.5625 -0.765625 C 3.757812 -0.160156 2.992188 0.140625 2.265625 0.140625 C 1.296875 0.140625 0.8125 -0.347656 0.8125 -1.328125 L 0.8125 -5.3125 L 1.75 -5.3125 L 1.75 -1.578125 C 1.738281 -1.242188 1.796875 -1.007812 1.921875 -0.875 C 2.054688 -0.738281 2.28125 -0.671875 2.59375 -0.671875 C 2.863281 -0.671875 3.132812 -0.726562 3.40625 -0.84375 C 3.6875 -0.96875 4.03125 -1.164062 4.4375 -1.4375 L 4.4375 -5.3125 Z M 5.375 -5.3125 "/></g></g></g><g fill="rgb(100%, 100%, 100%)" fill-opacity="1"><g transform="translate(68.230892, 18.850181)"><g><path d="M 4.1875 -5.453125 L 4.078125 -4.578125 L 3.765625 -4.578125 C 3.492188 -4.578125 3.210938 -4.523438 2.921875 -4.421875 C 2.640625 -4.316406 2.257812 -4.144531 1.78125 -3.90625 L 1.78125 0 L 0.859375 0 L 0.859375 -5.3125 L 1.578125 -5.3125 L 1.671875 -4.484375 C 2.492188 -5.128906 3.25 -5.453125 3.9375 -5.453125 Z M 4.1875 -5.453125 "/></g></g></g></svg>