<svg xmlns="http://www.w3.org/2000/svg" xmlns:xlink="http://www.w3.org/1999/xlink" width="40" zoomAndPan="magnify" viewBox="0 0 30 30.000001" height="40" preserveAspectRatio="xMidYMid meet" version="1.0"><defs><clipPath id="id1"><path d="M 4.292969 3.808594 L 26.070312 3.808594 L 26.070312 25.585938 L 4.292969 25.585938 Z M 4.292969 3.808594 " clip-rule="nonzero"/></clipPath></defs><g clip-path="url(#id1)"><path fill="rgb(0%, 76.078796%, 79.60968%)" d="M 26.070312 14.699219 C 26.070312 8.6875 21.191406 3.808594 15.179688 3.808594 C 9.167969 3.808594 4.292969 8.6875 4.292969 14.699219 C 4.292969 20.710938 9.167969 25.585938 15.179688 25.585938 C 21.191406 25.585938 26.070312 20.710938 26.070312 14.699219 Z M 26.070312 14.699219 " fill-opacity="1" fill-rule="nonzero"/></g><path fill="rgb(100%, 100%, 100%)" d="M 23.34375 17.488281 C 22.550781 16.246094 21.757812 15 20.964844 13.757812 C 20.832031 13.546875 20.539062 13.550781 20.40625 13.757812 C 19.609375 14.996094 18.808594 16.238281 18.011719 17.476562 C 17.925781 17.613281 17.953125 17.738281 18.035156 17.828125 C 18.082031 17.902344 18.164062 17.957031 18.289062 17.957031 C 18.710938 17.957031 19.128906 17.957031 19.550781 17.960938 C 17.613281 21.046875 12.898438 21.328125 10.691406 18.164062 C 9.984375 17.152344 8.308594 18.121094 9.023438 19.144531 C 10.585938 21.375 13.148438 22.65625 15.886719 22.347656 C 18.523438 22.042969 20.652344 20.339844 21.710938 17.972656 C 22.164062 17.972656 22.613281 17.976562 23.066406 17.976562 C 23.304688 17.976562 23.480469 17.699219 23.34375 17.488281 " fill-opacity="1" fill-rule="nonzero"/><path fill="rgb(100%, 100%, 100%)" d="M 21.324219 10.195312 C 19.761719 7.960938 17.199219 6.679688 14.457031 6.992188 C 11.792969 7.300781 9.652344 9.035156 8.609375 11.441406 C 8.046875 11.441406 7.484375 11.4375 6.917969 11.4375 C 6.679688 11.4375 6.507812 11.714844 6.636719 11.925781 C 7.433594 13.167969 8.222656 14.414062 9.015625 15.652344 C 9.152344 15.863281 9.441406 15.859375 9.574219 15.652344 C 10.371094 14.414062 11.171875 13.175781 11.96875 11.9375 C 12.058594 11.800781 12.027344 11.675781 11.949219 11.585938 C 11.898438 11.511719 11.816406 11.453125 11.691406 11.453125 C 11.375 11.453125 11.066406 11.453125 10.75 11.449219 C 12.664062 8.300781 17.429688 7.988281 19.652344 11.179688 C 20.363281 12.1875 22.039062 11.222656 21.324219 10.195312 " fill-opacity="1" fill-rule="nonzero"/></svg>